#N canvas 352 186 631 325 10;
#X obj 137 -15 loadbang;
#X msg 49 47 read doc/version.txt;
#X obj 45 118 textfile;
#X obj 82 3 bng 15 250 50 0 empty empty empty 17 7 0 10 -262144 -1
-1;
#X obj 122 219 outlet;
#X msg 46 80 rewind;
#X obj 190 20 delay 200;
#X obj 18 178 print;
#X msg 161 185 version 0.9.38 RC1 - released under GNU-GPL ver.3;
#X msg 120 150 set \$1 \$2 \$3 \$4 \$5 \$6 \$7 \$8;
#X obj 188 50 delay 200;
#X obj 188 86 delay 200;
#X connect 0 0 1 0;
#X connect 0 0 6 0;
#X connect 1 0 2 0;
#X connect 2 0 9 0;
#X connect 2 0 7 0;
#X connect 2 1 9 0;
#X connect 3 0 6 0;
#X connect 3 0 1 0;
#X connect 5 0 2 0;
#X connect 6 0 5 0;
#X connect 6 0 10 0;
#X connect 9 0 8 0;
#X connect 9 0 4 0;
#X connect 10 0 2 0;
#X connect 10 0 11 0;
#X connect 11 0 8 0;
#X coords 0 -1 1 1 100 20 1 0 0;
