#N canvas 255 180 573 505 10;
#X obj 383 20 inlet;
#X obj 281 73 f;
#X obj 281 51 bng 15 250 50 0 empty empty empty 17 7 0 10 -262144 -1
-1;
#X floatatom 322 113 5 0 0 0 - - -;
#X obj 110 10 inlet;
#X obj 51 70 unpack s f f;
#X obj 33 156 symbol;
#X obj 38 243 f;
#X obj 178 103 is_equal;
#X text 155 9 receives a message "cmd # param";
#X obj 72 102 bng 15 250 50 0 empty empty empty 17 7 0 10 -262144 -1
-1;
#X obj 37 219 bng 15 250 50 0 empty empty empty 17 7 0 10 -262144 -1
-1;
#X obj 66 242 f;
#X obj 65 219 bng 15 250 50 0 empty empty empty 17 7 0 10 -262144 -1
-1;
#X obj 93 242 f;
#X obj 92 218 bng 15 250 50 0 empty empty empty 17 7 0 10 -262144 -1
-1;
#X obj 120 242 f;
#X obj 119 218 bng 15 250 50 0 empty empty empty 17 7 0 10 -262144
-1 -1;
#X obj 146 242 f;
#X obj 145 218 bng 15 250 50 0 empty empty empty 17 7 0 10 -262144
-1 -1;
#X obj 19 369 outlet;
#X obj 61 393 outlet;
#X obj 85 370 outlet;
#X obj 122 392 outlet;
#X obj 148 369 outlet;
#X text 281 224 colr;
#X text 310 224 colg;
#X text 339 224 colb;
#X obj 258 241 f;
#X obj 253 217 bng 15 250 50 0 empty empty empty 17 7 0 10 -262144
-1 -1;
#X obj 283 261 select 10;
#X obj 434 154 f;
#X obj 372 85 unpack s f f;
#X obj 374 120 select cmd;
#X obj 388 153 bng 15 250 50 0 empty empty empty 17 7 0 10 -262144
-1 -1;
#X obj 37 126 delay 10;
#X obj 285 289 bng 15 250 50 0 empty empty empty 17 7 0 10 -262144
-1 -1;
#X obj 284 315 delay 150;
#X obj 364 309 delay 150;
#X obj 294 343 delay 150;
#X obj 372 340 delay 150;
#X obj 462 176 s colour_cmd;
#X text 373 223 ti;
#X text 398 222 to;
#X obj 40 191 select colr colg colb ti to cmd;
#X connect 0 0 1 1;
#X connect 0 0 2 0;
#X connect 1 0 3 0;
#X connect 1 0 8 1;
#X connect 2 0 1 0;
#X connect 4 0 5 0;
#X connect 4 0 2 0;
#X connect 4 0 32 0;
#X connect 5 0 6 1;
#X connect 5 1 8 0;
#X connect 5 2 7 1;
#X connect 5 2 12 1;
#X connect 5 2 14 1;
#X connect 5 2 16 1;
#X connect 5 2 18 1;
#X connect 5 2 28 1;
#X connect 6 0 44 0;
#X connect 7 0 20 0;
#X connect 8 0 10 0;
#X connect 10 0 35 0;
#X connect 11 0 7 0;
#X connect 12 0 21 0;
#X connect 13 0 12 0;
#X connect 14 0 22 0;
#X connect 15 0 14 0;
#X connect 16 0 23 0;
#X connect 17 0 16 0;
#X connect 18 0 24 0;
#X connect 19 0 18 0;
#X connect 28 0 30 0;
#X connect 29 0 28 0;
#X connect 30 0 36 0;
#X connect 31 0 41 0;
#X connect 32 0 33 0;
#X connect 32 2 31 1;
#X connect 33 0 34 0;
#X connect 34 0 31 0;
#X connect 35 0 6 0;
#X connect 36 0 20 0;
#X connect 36 0 37 0;
#X connect 37 0 21 0;
#X connect 37 0 38 0;
#X connect 38 0 22 0;
#X connect 38 0 39 0;
#X connect 39 0 23 0;
#X connect 39 0 40 0;
#X connect 40 0 24 0;
#X connect 44 0 11 0;
#X connect 44 1 13 0;
#X connect 44 2 15 0;
#X connect 44 3 17 0;
#X connect 44 4 19 0;
#X connect 44 5 29 0;
#X coords 0 -1 1 1 140 40 1 280 200;
#X text 1 1 copyright (C) 2009 Anatol Waschke;
#X text 1 13 distributed under GPL (see doc/COPYING);
This file is part of bai.tu.

    bai.tu is free software: you can redistribute it and/or modify
    it under the terms of the GNU General Public License as published by
    the Free Software Foundation, either version 3 of the License, or
    (at your option) any later version.

    bai.tu is distributed in the hope that it will be useful,
    but WITHOUT ANY WARRANTY; without even the implied warranty of
    MERCHANTABILITY or FITNESS FOR A PARTICULAR PURPOSE.  See the
    GNU General Public License for more details.

    You should have received a copy of the GNU General Public License
    along with bai.tu.  If not, see <http://www.gnu.org/licenses/>.;
