#N canvas 267 254 733 477 10;
#X obj 21 24 inlet;
#X obj 62 24 inlet;
#X obj 102 24 inlet;
#X obj 141 24 inlet;
#X obj 179 24 inlet;
#X obj 364 23 inlet;
#X text 369 8 number;
#X obj 18 116 f;
#X obj 12 210 pack f f;
#X obj 12 67 bng 15 250 50 0 empty empty empty 17 7 0 10 -262144 -1
-1;
#X obj 60 281 pack f f;
#X obj 67 352 pack f f;
#X msg 60 318 send colg \$1 \$2;
#X msg 12 247 send colr \$1 \$2;
#X msg 67 389 send colb \$1 \$2;
#X obj 140 234 pack f f;
#X obj 176 304 pack f f;
#X obj 42 456 outlet;
#X obj 13 91 delay 10;
#X obj 76 116 f;
#X obj 70 67 bng 15 250 50 0 empty empty empty 17 7 0 10 -262144 -1
-1;
#X obj 71 91 delay 10;
#X obj 136 116 f;
#X obj 130 67 bng 15 250 50 0 empty empty empty 17 7 0 10 -262144 -1
-1;
#X obj 131 91 delay 10;
#X obj 194 116 f;
#X obj 188 67 bng 15 250 50 0 empty empty empty 17 7 0 10 -262144 -1
-1;
#X obj 189 91 delay 10;
#X obj 256 117 f;
#X obj 250 68 bng 15 250 50 0 empty empty empty 17 7 0 10 -262144 -1
-1;
#X obj 251 92 delay 10;
#X msg 140 271 send ti \$1 \$2;
#X msg 176 341 send to \$1 \$2;
#X connect 0 0 8 1;
#X connect 0 0 9 0;
#X connect 1 0 10 1;
#X connect 1 0 20 0;
#X connect 2 0 11 1;
#X connect 2 0 23 0;
#X connect 3 0 15 1;
#X connect 3 0 26 0;
#X connect 4 0 16 1;
#X connect 4 0 29 0;
#X connect 5 0 7 1;
#X connect 5 0 19 1;
#X connect 5 0 22 1;
#X connect 5 0 25 1;
#X connect 5 0 28 1;
#X connect 7 0 8 0;
#X connect 8 0 13 0;
#X connect 9 0 18 0;
#X connect 10 0 12 0;
#X connect 11 0 14 0;
#X connect 12 0 17 0;
#X connect 13 0 17 0;
#X connect 14 0 17 0;
#X connect 15 0 31 0;
#X connect 16 0 32 0;
#X connect 18 0 7 0;
#X connect 19 0 10 0;
This file is part of bai.tu.

    bai.tu is free software: you can redistribute it and/or modify
    it under the terms of the GNU General Public License as published by
    the Free Software Foundation, either version 3 of the License, or
    (at your option) any later version.

    bai.tu is distributed in the hope that it will be useful,
    but WITHOUT ANY WARRANTY; without even the implied warranty of
    MERCHANTABILITY or FITNESS FOR A PARTICULAR PURPOSE.  See the
    GNU General Public License for more details.

    You should have received a copy of the GNU General Public License
    along with bai.tu.  If not, see <http://www.gnu.org/licenses/>.;
#X connect 20 0 21 0;
#X connect 21 0 19 0;
#X connect 22 0 11 0;
#X connect 23 0 24 0;
#X connect 24 0 22 0;
#X connect 25 0 15 0;
#X connect 26 0 27 0;
#X connect 27 0 25 0;
#X connect 28 0 16 0;
#X connect 29 0 30 0;
#X connect 30 0 28 0;
#X connect 31 0 17 0;
#X connect 32 0 17 0;
#X coords 0 -1 1 1 210 40 1 400 100;
#X text 1 1 copyright (C) 2009 Anatol Waschke;
#X text 1 13 distributed under GPL (see doc/COPYING);
