#N canvas 76 304 1096 690 10;
#X obj 47 262 colorRGB;
#X obj 187 257 hsl 128 15 0 1 0 0 empty empty empty -2 -8 0 10 -262144
-1 -1 0 1;
#X obj 46 227 alpha;
#X obj 362 232 line;
#X obj 286 288 bng 15 250 50 0 empty empty empty 17 7 0 10 -262144
-1 -1;
#X obj 261 286 vsl 15 64 0 15000 0 0 empty empty empty 0 -9 0 10 -262144
-1 -1 0 1;
#X msg 401 186 set 0 \$1;
#X msg 401 214 0 0;
#X obj 402 150 int;
#X obj 214 286 bng 15 250 50 0 empty empty empty 17 7 0 10 -262144
-1 -1;
#X obj 192 287 vsl 15 64 0 15000 0 0 empty empty empty 0 -9 0 10 -262144
-1 -1 0 1;
#X msg 339 211 1 0;
#X obj 310 150 int;
#X msg 309 186 set 1 \$1;
#X obj 124 286 vsl 15 64 0 1 0 0 empty empty R 0 -9 0 10 -258113 -1
-1 0 1;
#X obj 142 286 vsl 15 64 0 1 0 0 empty empty G 0 -9 0 10 -4034 -1 -1
0 1;
#X obj 160 286 vsl 15 64 0 1 0 0 empty empty B 0 -9 0 10 -4160 -1 -1
0 1;
#X obj 6 -105 gemhead;
#X obj 136 -103 inlet;
#X obj 347 -105 inlet;
#X obj 38 342 outlet;
#X obj 512 436 bng 15 250 50 0 empty empty empty 17 7 0 10 -262144
-1 -1;
#X obj 193 402 bng 15 250 50 0 empty empty empty 17 7 0 10 -262144
-1 -1;
#X obj 859 -65 loadbang;
#X obj 861 -38 float \$1;
#X msg 505 473 write col0.auto;
#X obj 751 54 textfile;
#X msg 757 8 read col0.auto;
#X obj 555 520 print;
#X obj 541 450 delay 100;
#X obj 791 79 bng 15 250 50 0 empty empty empty 17 7 0 10 -262144 -1
-1;
#X obj 776 113 print list;
#X obj 646 19 print;
#X obj 467 -110 bng 15 250 50 0 empty empty empty 17 7 0 10 -262144
-1 -1;
#X msg 628 -37 print;
#X obj 591 -35 bng 15 250 50 0 empty empty empty 17 7 0 10 -262144
-1 -1;
#X msg 674 -71 rewind;
#X obj 784 -112 bng 15 250 50 0 empty empty empty 17 7 0 10 -262144
-1 -1;
#X obj 742 -73 delay 1;
#X obj 423 474 textfile;
#X obj 697 -117 delay 1;
#X obj 615 -89 delay 1;
#X obj 855 -105 delay 500;
#X floatatom 221 321 5 0 0 0 - - -;
#X floatatom 284 321 5 0 0 0 - - -;
#X text 214 337 FADE IN;
#X text 277 337 FADE OUT;
#X obj 563 153 outlet;
#X obj 513 209 r nulmem;
#X obj 234 -101 inlet;
#X obj 201 -45 r colour_receive;
#X obj 182 -6 colour_demux;
#X obj 143 482 colour_mux;
#X obj 152 545 s colour_send;
#X obj 328 269 vsl 15 80 0 100 0 0 empty empty GEM -1 -9 0 10 -262144
-1 -1 0 1;
#X obj 25 -80 i;
#X msg 25 -56 set \$1;
#X obj 445 -72 unpack f f f f f f;
#X msg 495 413 set \$1 \$2 \$3 \$4 \$5 \$6;
#X obj 222 397 pack f f f f f f;
#X text 122 353 out;
#X text 318 354 fade;
#X text 124 240 fade in;
#X text 226 238 %fade%;
#X text 298 235 fade out;
#X text 1 1 copyright (C) 2009 Anatol Waschke;
#X text 1 13 distributed under GPL (see doc/COPYING);
#X obj 919 38 set_comp_write col;
#X obj 919 -14 set_comp_read col;
#X connect 0 0 20 0;
#X connect 1 0 0 4;
#X connect 2 0 0 0;
#X connect 3 0 1 0;
#X connect 3 0 47 0;
#X connect 4 0 7 0;
#X connect 4 0 54 0;
#X connect 5 0 8 0;
#X connect 5 0 22 0;
#X connect 5 0 52 4;
#X connect 5 0 59 4;
#X connect 6 0 7 0;
#X connect 7 0 3 0;
#X connect 8 0 6 0;
#X connect 8 0 44 0;
#X connect 9 0 11 0;
#X connect 9 0 54 0;
#X connect 10 0 12 0;
#X connect 10 0 22 0;
#X connect 10 0 52 3;
#X connect 10 0 59 3;
#X connect 11 0 3 0;
#X connect 12 0 13 0;
#X connect 12 0 43 0;
#X connect 13 0 11 0;
#X connect 14 0 0 1;
#X connect 14 0 22 0;
#X connect 14 0 52 0;
#X connect 14 0 59 0;
#X connect 15 0 0 2;
#X connect 15 0 22 0;
#X connect 15 0 52 1;
#X connect 15 0 59 1;
#X connect 16 0 0 3;
#X connect 16 0 22 0;
#X connect 16 0 52 2;
#X connect 16 0 59 2;
#X connect 17 0 2 0;
#X connect 18 0 9 0;
#X connect 19 0 4 0;
#X connect 21 0 29 0;
#X connect 22 0 59 0;
#X connect 23 0 24 0;
#X connect 23 0 37 0;
#X connect 23 0 42 0;
#X connect 24 0 52 5;
#X connect 24 0 51 1;
#X connect 24 0 67 0;
#X connect 24 0 68 0;
#X connect 25 0 28 0;
#X connect 25 0 39 0;
#X connect 26 0 31 0;
#X connect 26 0 57 0;
#X connect 26 1 30 0;
#X connect 27 0 26 0;
#X connect 27 0 32 0;
#X connect 29 0 25 0;
#X connect 33 0 57 0;
#X connect 34 0 26 0;
#X connect 35 0 26 0;
#X connect 35 0 10 0;
#X connect 35 0 5 0;
#X connect 36 0 26 0;
#X connect 37 0 38 0;
#X connect 38 0 27 0;
#X connect 38 0 40 0;
#X connect 40 0 36 0;
#X connect 40 0 41 0;
#X connect 41 0 35 0;
#X connect 42 0 37 0;
#X connect 48 0 4 0;
#X connect 49 0 1 0;
#X connect 50 0 51 0;
#X connect 51 0 14 0;
#X connect 51 1 15 0;
#X connect 51 2 16 0;
#X connect 51 3 10 0;
#X connect 51 4 5 0;
#X connect 52 0 53 0;
#X connect 54 0 55 0;
#X connect 54 0 59 5;
#X connect 54 0 22 0;
#X connect 55 0 56 0;
#X connect 56 0 17 0;
#X connect 57 0 14 0;
#X connect 57 1 15 0;
#X connect 57 2 16 0;
#X connect 57 3 10 0;
#X connect 57 4 5 0;
#X connect 57 5 54 0;
#X connect 58 0 21 0;
#X connect 58 0 39 0;
#X connect 59 0 58 0;
#X connect 67 0 25 0;
#X connect 68 0 27 0;
#X coords 1 -1 2 1 230 150 1 120 220;
