#N canvas 107 70 1107 690 10;
#X obj 19 56 gemhead;
#X obj 132 387 rectangle;
#X obj 105 178 colorRGB;
#X obj 132 342 translateXYZ;
#X obj 240 -22 vsl 15 128 0 1 0 0 empty empty empty 0 -9 0 10 -262144
-1 -1 0 1;
#X obj 274 -22 vsl 15 128 0 1 0 0 empty empty empty 0 -9 0 10 -262144
-1 -1 0 1;
#X obj 310 -23 vsl 15 128 0 1 0 0 empty empty empty 0 -9 0 10 -262144
-1 -1 0 1;
#X floatatom 232 321 5 0 0 0 - - -;
#X floatatom 268 321 5 0 0 0 - - -;
#X obj 163 284 / 100;
#X obj 232 287 / 100;
#X floatatom 306 321 5 0 0 0 - - -;
#X obj 305 286 / 100;
#X obj 129 -178 hsl 128 15 0 1 0 0 empty empty empty -2 -8 0 10 -262144
-1 -1 0 1;
#X floatatom 241 386 5 0 0 0 - - -;
#X obj 418 283 / 100;
#X floatatom 288 387 5 0 0 0 - - -;
#X obj 491 282 / 100;
#X obj 3 -75 inlet;
#X obj 49 -75 inlet;
#X obj 107 209 rotateXYZ;
#X obj 620 334 bng 15 250 50 0 empty empty empty 17 7 0 10 -262144
-1 -1;
#X obj 577 272 bng 15 250 50 0 empty empty empty 17 7 0 10 -262144
-1 -1;
#X obj 820 -190 loadbang;
#X obj 851 100 float \$1;
#X msg 613 371 write Faca0.auto;
#X obj 741 44 textfile;
#X msg 747 -2 read Faca0.auto;
#X obj 663 418 print;
#X obj 649 348 delay 100;
#X obj 781 69 bng 15 250 50 0 empty empty empty 17 7 0 10 -262144 -1
-1;
#X obj 766 103 print list;
#X obj 636 9 print;
#X obj 600 -5 bng 15 250 50 0 empty empty empty 17 7 0 10 -262144 -1
-1;
#X msg 618 -47 print;
#X obj 581 -45 bng 15 250 50 0 empty empty empty 17 7 0 10 -262144
-1 -1;
#X msg 664 -81 rewind;
#X obj 774 -122 bng 15 250 50 0 empty empty empty 17 7 0 10 -262144
-1 -1;
#X obj 732 -83 delay 1;
#X obj 531 372 textfile;
#X obj 687 -127 delay 1;
#X obj 605 -99 delay 1;
#X obj 845 -115 delay 500;
#X text 250 401 X;
#X text 298 401 Y;
#X text 266 368 SIZE;
#X text 257 304 POSITION;
#X text 243 335 X;
#X text 276 336 Y;
#X text 316 336 Z;
#X obj 359 306 vsl 15 110 0 1 0 0 empty empty empty 0 -9 0 10 -159808
-1 -1 0 1;
#X obj 388 -228 r facas_receive;
#X obj 356 541 s facas_send;
#X obj 309 -168 print;
#X obj 356 479 faca_mux;
#X floatatom 287 -93 5 0 0 0 - - -;
#X floatatom 329 -93 5 0 0 0 - - -;
#X floatatom 371 -93 5 0 0 0 - - -;
#X obj 416 -112 bng 15 250 50 0 empty empty empty 17 7 0 10 -262144
-1 -1;
#X obj 96 -74 inlet;
#X obj 143 -73 inlet;
#X floatatom 293 352 5 0 0 0 - - -;
#X obj 719 445 / 100;
#X obj 704 506 +;
#X obj 53 114 alpha;
#X obj 187 -73 inlet;
#X obj 730 474 bng 15 250 50 0 empty empty empty 17 7 0 10 -262144
-1 -1;
#X obj 606 267 pack \$1 \$2 \$3 \$4 \$5 \$6 \$7 \$8 \$9;
#X msg 603 311 set \$1 \$2 \$3 \$4 \$5 \$6 \$7 \$8 \$9;
#X obj 530 89 unpack \$1 \$2 \$3 \$4 \$5 \$6 \$7 \$8 \$9;
#X text 232 352 Rotate Z;
#X obj 385 -192 faca_demux;
#X text 1 1 copyright (C) 2009 Anatol Waschke;
#X text 1 13 distributed under GPL (see doc/COPYING);
#X obj 929 156 set_comp_write Faca;
#X obj 917 28 set_comp_read Faca;
#X connect 0 0 64 0;
#X connect 2 0 20 0;
#X connect 3 0 1 0;
#X connect 4 0 2 1;
#X connect 4 0 22 0;
#X connect 4 0 54 0;
#X connect 4 0 67 5;
#X connect 5 0 2 2;
#X connect 5 0 22 0;
#X connect 5 0 54 1;
#X connect 5 0 67 6;
#X connect 6 0 2 3;
#X connect 6 0 22 0;
#X connect 6 0 54 2;
#X connect 6 0 67 7;
#X connect 7 0 9 0;
#X connect 7 0 22 0;
#X connect 7 0 54 3;
#X connect 7 0 67 0;
#X connect 8 0 10 0;
#X connect 8 0 22 0;
#X connect 8 0 54 4;
#X connect 8 0 67 1;
#X connect 9 0 3 1;
#X connect 10 0 3 2;
#X connect 11 0 12 0;
#X connect 11 0 22 0;
#X connect 11 0 54 5;
#X connect 11 0 67 2;
#X connect 12 0 3 3;
#X connect 13 0 4 0;
#X connect 13 0 5 0;
#X connect 13 0 6 0;
#X connect 14 0 15 0;
#X connect 14 0 22 0;
#X connect 14 0 54 6;
#X connect 14 0 67 3;
#X connect 15 0 1 1;
#X connect 16 0 17 0;
#X connect 16 0 22 0;
#X connect 16 0 54 7;
#X connect 16 0 67 4;
#X connect 17 0 1 2;
#X connect 18 0 20 1;
#X connect 19 0 20 2;
#X connect 20 0 3 0;
#X connect 21 0 29 0;
#X connect 22 0 67 0;
#X connect 23 0 24 0;
#X connect 23 0 37 0;
#X connect 23 0 42 0;
#X connect 24 0 54 9;
#X connect 24 0 71 1;
#X connect 24 0 74 0;
#X connect 24 0 75 0;
#X connect 25 0 28 0;
#X connect 25 0 39 0;
#X connect 26 0 31 0;
#X connect 26 0 69 0;
#X connect 26 1 30 0;
#X connect 27 0 26 0;
#X connect 27 0 32 0;
#X connect 29 0 25 0;
#X connect 33 0 69 0;
#X connect 34 0 26 0;
#X connect 35 0 26 0;
#X connect 36 0 26 0;
#X connect 37 0 38 0;
#X connect 38 0 27 0;
#X connect 38 0 40 0;
#X connect 40 0 36 0;
#X connect 40 0 41 0;
#X connect 41 0 35 0;
#X connect 42 0 37 0;
#X connect 50 0 13 0;
#X connect 51 0 53 0;
#X connect 51 0 71 0;
#X connect 54 0 52 0;
#X connect 55 0 4 0;
#X connect 56 0 5 0;
#X connect 57 0 6 0;
#X connect 58 0 57 0;
#X connect 59 0 63 0;
#X connect 60 0 1 0;
#X connect 61 0 62 0;
#X connect 61 0 67 8;
#X connect 61 0 22 0;
#X connect 61 0 54 8;
#X connect 62 0 63 1;
#X connect 62 0 66 0;
#X connect 63 0 20 3;
#X connect 64 0 2 0;
#X connect 65 0 2 4;
#X connect 66 0 63 0;
#X connect 67 0 68 0;
#X connect 68 0 21 0;
#X connect 68 0 39 0;
#X connect 69 0 7 0;
#X connect 69 1 8 0;
#X connect 69 2 11 0;
#X connect 69 3 14 0;
#X connect 69 4 16 0;
#X connect 69 5 4 0;
#X connect 69 6 5 0;
#X connect 69 7 6 0;
#X connect 69 8 61 0;
#X connect 71 0 55 0;
#X connect 71 1 56 0;
#X connect 71 2 57 0;
#X connect 71 2 58 0;
#X connect 71 3 7 0;
#X connect 71 4 8 0;
#X connect 71 5 11 0;
#X connect 71 6 14 0;
#X connect 71 7 16 0;
#X connect 71 8 61 0;
#X connect 74 0 25 0;
#X connect 75 0 27 0;
#X coords 0 -1 1 1 160 130 1 220 290;
