#N canvas 467 82 590 503 10;
#X obj 109 62 inlet;
#X obj 167 63 inlet;
#X obj 225 61 inlet;
#X obj 281 60 inlet;
#X obj 334 61 inlet;
#X text 417 72 Keystone;
#X text 490 63 vid;
#X text 518 67 fade;
#X text 406 63 X;
#X text 436 62 Y;
#X text 465 61 Z;
#X obj 219 141 Faca 2;
#X obj 35 143 Faca 1;
#X obj 53 317 Faca 3;
#X obj 250 322 Faca 4;
#X text 1 1 copyright (C) 2009 Anatol Waschke;
#X text 1 13 distributed under GPL (see doc/COPYING);
#X text 422 92 using Faca1 .. 4;
#X connect 0 0 11 0;
#X connect 0 0 12 0;
#X connect 0 0 13 0;
#X connect 0 0 14 0;
#X connect 1 0 11 1;
#X connect 1 0 12 1;
#X connect 1 0 13 1;
#X connect 1 0 14 1;
#X connect 2 0 11 2;
#X connect 2 0 12 2;
#X connect 2 0 13 2;
#X connect 2 0 14 2;
#X connect 3 0 11 3;
#X connect 3 0 12 3;
#X connect 3 0 13 3;
#X connect 3 0 14 3;
#X connect 4 0 11 4;
#X connect 4 0 12 4;
#X connect 4 0 13 4;
#X connect 4 0 14 4;
#X coords 0 -1 1 1 150 60 1 400 50;
