#N canvas 1461 175 733 477 10;
#X obj 21 24 inlet;
#X obj 62 24 inlet;
#X obj 102 24 inlet;
#X obj 141 24 inlet;
#X obj 179 24 inlet;
#X obj 217 24 inlet;
#X obj 255 25 inlet;
#X obj 293 25 inlet;
#X obj 435 26 inlet;
#X text 434 3 number;
#X obj 18 116 f;
#X obj 12 210 pack f f;
#X obj 12 67 bng 15 250 50 0 empty empty empty 17 7 0 10 -262144 -1
-1;
#X obj 60 281 pack f f;
#X obj 67 352 pack f f;
#X msg 60 318 send colg \$1 \$2;
#X msg 12 247 send colr \$1 \$2;
#X msg 67 389 send colb \$1 \$2;
#X obj 140 234 pack f f;
#X msg 140 271 send px \$1 \$2;
#X obj 176 304 pack f f;
#X msg 176 341 send py \$1 \$2;
#X obj 211 370 pack f f;
#X msg 211 407 send pz \$1 \$2;
#X obj 292 293 pack f f;
#X msg 292 330 send sx \$1 \$2;
#X obj 319 371 pack f f;
#X msg 319 408 send sy \$1 \$2;
#X obj 42 456 outlet;
#X obj 13 91 delay 10;
#X obj 76 116 f;
#X obj 70 67 bng 15 250 50 0 empty empty empty 17 7 0 10 -262144 -1
-1;
#X obj 71 91 delay 10;
#X obj 136 116 f;
#X obj 130 67 bng 15 250 50 0 empty empty empty 17 7 0 10 -262144 -1
-1;
#X obj 131 91 delay 10;
#X obj 194 116 f;
#X obj 188 67 bng 15 250 50 0 empty empty empty 17 7 0 10 -262144 -1
-1;
#X obj 189 91 delay 10;
#X obj 256 117 f;
#X obj 250 68 bng 15 250 50 0 empty empty empty 17 7 0 10 -262144 -1
-1;
#X obj 251 92 delay 10;
#X obj 117 182 f;
#X obj 111 133 bng 15 250 50 0 empty empty empty 17 7 0 10 -262144
-1 -1;
#X obj 112 157 delay 10;
#X obj 220 196 f;
#X obj 214 147 bng 15 250 50 0 empty empty empty 17 7 0 10 -262144
-1 -1;
#X obj 215 171 delay 10;
#X obj 311 199 f;
#X obj 305 150 bng 15 250 50 0 empty empty empty 17 7 0 10 -262144
-1 -1;
#X obj 306 174 delay 10;
#X obj 355 25 inlet;
#X obj 414 223 f;
#X obj 408 174 bng 15 250 50 0 empty empty empty 17 7 0 10 -262144
-1 -1;
#X obj 409 198 delay 10;
#X obj 449 300 pack f f;
#X msg 449 339 send rz \$1 \$2;
#X connect 0 0 11 1;
#X connect 0 0 12 0;
#X connect 1 0 13 1;
#X connect 1 0 31 0;
#X connect 2 0 14 1;
#X connect 2 0 34 0;
#X connect 3 0 18 1;
#X connect 3 0 37 0;
#X connect 4 0 20 1;
#X connect 4 0 40 0;
#X connect 5 0 22 1;
#X connect 5 0 43 0;
#X connect 6 0 24 1;
#X connect 6 0 46 0;
#X connect 7 0 26 1;
#X connect 7 0 49 0;
#X connect 8 0 10 1;
#X connect 8 0 30 1;
#X connect 8 0 33 1;
#X connect 8 0 36 1;
#X connect 8 0 42 1;
#X connect 8 0 39 1;
#X connect 8 0 45 1;
#X connect 8 0 48 1;
#X connect 8 0 52 1;
#X connect 10 0 11 0;
#X connect 11 0 16 0;
#X connect 12 0 29 0;
#X connect 13 0 15 0;
#X connect 14 0 17 0;
#X connect 15 0 28 0;
#X connect 16 0 28 0;
#X connect 17 0 28 0;
#X connect 18 0 19 0;
#X connect 19 0 28 0;
#X connect 20 0 21 0;
#X connect 21 0 28 0;
#X connect 22 0 23 0;
#X connect 23 0 28 0;
#X connect 24 0 25 0;
#X connect 25 0 28 0;
#X connect 26 0 27 0;
#X connect 27 0 28 0;
#X connect 29 0 10 0;
#X connect 30 0 13 0;
#X connect 31 0 32 0;
#X connect 32 0 30 0;
#X connect 33 0 14 0;
#X connect 34 0 35 0;
#X connect 35 0 33 0;
#X connect 36 0 18 0;
#X connect 37 0 38 0;
#X connect 38 0 36 0;
#X connect 39 0 20 0;
#X connect 40 0 41 0;
#X connect 41 0 39 0;
#X connect 42 0 22 0;
#X connect 43 0 44 0;
#X connect 44 0 42 0;
#X connect 45 0 24 0;
#X connect 46 0 47 0;
#X connect 47 0 45 0;
#X connect 48 0 26 0;
#X connect 49 0 50 0;
#X connect 50 0 48 0;
#X connect 51 0 53 0;
#X connect 51 0 55 1;
#X connect 52 0 55 0;
#X connect 53 0 54 0;
#X connect 54 0 52 0;
#X connect 55 0 56 0;
#X connect 56 0 28 0;
#X coords 0 -1 1 1 210 40 1 400 100;
#X text 1 1 copyright (C) 2009 Anatol Waschke;
#X text 1 13 distributed under GPL (see doc/COPYING);
This file is part of bai.tu.

    bai.tu is free software: you can redistribute it and/or modify
    it under the terms of the GNU General Public License as published by
    the Free Software Foundation, either version 3 of the License, or
    (at your option) any later version.

    bai.tu is distributed in the hope that it will be useful,
    but WITHOUT ANY WARRANTY; without even the implied warranty of
    MERCHANTABILITY or FITNESS FOR A PARTICULAR PURPOSE.  See the
    GNU General Public License for more details.

    You should have received a copy of the GNU General Public License
    along with bai.tu.  If not, see <http://www.gnu.org/licenses/>.;
