#N canvas 452 328 547 431 10;
#X obj 273 377 gemwin;
#X msg 366 229 destroy;
#X obj 372 205 select 27;
#X obj 231 27 key;
#X obj 224 90 select 10;
#X obj 282 200 inlet;
#X msg 213 142 create \, 1;
#X obj 339 400 outlet;
#X obj 352 157 r rr_0;
#X obj 373 294 loadbang;
#X msg 347 334 cursor 0;
#X text 1 1 copyright (C) 2009 Anatol Waschke;
#X text 1 13 distributed under GPL (see doc/COPYING);
#X obj 347 26 online;
#X obj 229 58 ontest;
#X connect 0 0 7 0;
#X connect 1 0 0 0;
#X connect 2 0 1 0;
#X connect 3 0 14 0;
#X connect 4 0 6 0;
#X connect 5 0 0 0;
#X connect 6 0 0 0;
#X connect 8 0 1 0;
#X connect 9 0 10 0;
#X connect 10 0 0 0;
#X connect 14 0 4 0;
#X connect 14 0 2 0;
