#N canvas 178 357 1058 661 10;
#X obj 644 2 vsl 15 256 2400 100 0 0 empty empty empty 0 -9 0 10 -262144
-1 -1 14624 1;
#X obj 400 340 print;
#X obj 344 180 int;
#X obj 316 102 int;
#X obj 272 -18 bng 15 250 50 0 empty empty empty 17 7 0 10 -262144
-1 -1;
#X obj 387 140 int;
#X msg 258 121 destroy;
#X obj 319 214 pack \$1 \$2 \$3 \$4;
#X msg 318 240 dimen \$1 \$2 \, border 0 \, offset \$3 \$4 \, create
\, 1;
#X obj 308 18 delay 1;
#X obj 618 -16 vsl 15 256 2400 0 0 0 empty empty empty 0 -9 0 10 -262144
-1 -1 25500 1;
#X obj 361 3 int;
#X obj 623 -38 hsl 256 15 0 2400 0 0 empty empty empty -2 -8 0 10 -262144
-1 -1 13600 1;
#X floatatom 459 -41 5 0 0 0 - - -;
#X floatatom 385 120 5 0 0 0 - - -;
#X obj 644 -17 hsl 256 15 100 2400 0 0 empty empty empty -2 -8 0 10
-262144 -1 -1 22861 1;
#X floatatom 330 69 5 0 0 0 - - -;
#X floatatom 415 149 5 0 0 0 - - -;
#X obj 133 -8 loadbang;
#X obj 152 416 textfile;
#X msg 197 213 rewind;
#X obj 222 345 delay 10;
#X msg 208 379 write gem_setup.auto;
#X obj 241 318 bng 15 250 50 0 empty empty empty 17 7 0 10 -262144
-1 -1;
#X obj 157 450 unpack \$1 \$2 \$3 \$4;
#X obj 493 396 print list;
#X msg 77 390 print;
#X msg 146 76 read gem_setup.auto;
#X msg 233 281 set \$1 \$2 \$3 \$4;
#X floatatom 163 484 5 0 0 0 - - -;
#X floatatom 213 485 5 0 0 0 - - -;
#X obj 123 152 delay 10;
#X msg 86 277 bang;
#X msg 128 227 rewind;
#X obj 69 219 delay 10;
#X obj 180 -41 inlet;
#X msg 460 360 border 1;
#X obj 505 292 inlet;
#X obj 494 326 bng 15 250 50 0 empty empty empty 17 7 0 10 -262144
-1 -1;
#X obj 320 436 gem_auto;
#X msg 352 303 topmost 1;
#X obj 402 184 s mouse_limit;
#X obj 303 -42 loadbang;
#X text -136 -49 copyright (C) 2009 Anatol Waschke;
#X text -136 -37 distributed under GPL (see doc/COPYING);
#X obj -121 -11 r spath;
#X obj 148 35 delay 10;
#X msg -111 21 set read \$1gem_setup.auto;
#X msg -121 52 set write \$1gem_setup.auto;
#X obj 384 437 tgl 15 0 null online1 online -8 20 0 10 -262144 -1 -1
0 1;
#X connect 0 0 17 0;
#X connect 2 0 7 1;
#X connect 3 0 7 0;
#X connect 4 0 6 0;
#X connect 4 0 9 0;
#X connect 4 0 20 0;
#X connect 5 0 7 3;
#X connect 6 0 39 0;
#X connect 7 0 8 0;
#X connect 7 0 28 0;
#X connect 8 0 1 0;
#X connect 8 0 39 0;
#X connect 9 0 3 0;
#X connect 9 0 40 0;
#X connect 10 0 14 0;
#X connect 11 0 7 2;
#X connect 11 0 41 0;
#X connect 12 0 13 0;
#X connect 13 0 11 0;
#X connect 14 0 5 0;
#X connect 15 0 16 0;
#X connect 16 0 3 1;
#X connect 17 0 2 0;
#X connect 18 0 46 0;
#X connect 19 0 24 0;
#X connect 19 0 25 0;
#X connect 20 0 19 0;
#X connect 21 0 22 0;
#X connect 22 0 19 0;
#X connect 23 0 21 0;
#X connect 24 0 15 0;
#X connect 24 0 29 0;
#X connect 24 1 0 0;
#X connect 24 1 30 0;
#X connect 24 2 12 0;
#X connect 24 3 10 0;
#X connect 26 0 19 0;
#X connect 27 0 19 0;
#X connect 28 0 19 0;
#X connect 28 0 23 0;
#X connect 31 0 33 0;
#X connect 31 0 34 0;
#X connect 32 0 19 0;
#X connect 33 0 19 0;
#X connect 34 0 32 0;
#X connect 35 0 4 0;
#X connect 36 0 39 0;
#X connect 37 0 38 0;
#X connect 38 0 36 0;
#X connect 40 0 39 0;
#X connect 42 0 13 0;
#X connect 45 0 47 0;
#X connect 45 0 48 0;
#X connect 46 0 27 0;
#X connect 46 0 31 0;
#X connect 47 0 27 0;
#X connect 48 0 22 0;
