#N canvas 248 53 1003 755 10;
#X obj 90 94 sequence;
#X obj 96 500 r_cue_in;
#X obj 104 258 r_cue_out;
#X msg 96 209 connect 10.10.10.10 3001;
#X text 91 234;
#X text 130 563 cue out to video module / sound module;
#X text 188 159 cue out;
#X text 82 73 go;
#X text 247 76 go back;
#X text 423 76 go to;
#X msg 322 195 5;
#X text 357 195 mem r_cue_in;
#X text 387 239;
#X text 375 112;
#X text 225 36 NB: PC master;
#X text 219 458;
#X text 200 463 NB: PC slave;
#X connect 0 5 10 0;
#X connect 3 0 2 0;
#X connect 10 0 2 1;
