#N canvas 0 25 1003 656 10;
#X msg 700 109 connect 192.168.0.7 3001;
#X obj 215 188 sequence_sync 3020;
#X floatatom 131 339 5 0 0 0 - - -;
#X text 698 90 IP do PC slave;
#X text 98 356 Memória Activa;
#X text 442 266 Saídas Cue;
#X text 195 172 comment;
#X text 387 171 comment;
#X text 586 171 comment;
#X connect 0 0 1 3;
#X connect 1 0 2 0;
