#N canvas 0 304 1255 678 10;
#X obj 45 189 pix_texture;
#X obj 47 262 colorRGB;
#X obj 187 257 hsl 128 15 0 1 0 0 empty empty empty -2 -8 0 10 -262144
-1 -1 0 1;
#X obj 46 227 alpha;
#X obj 362 232 line;
#X obj 286 288 bng 15 250 50 0 empty empty empty 17 7 0 10 -262144
-1 -1;
#X obj 261 286 vsl 15 64 0 15000 0 0 empty empty empty 0 -9 0 10 -262144
-1 -1 2300 1;
#X msg 401 186 set 0 \$1;
#X msg 401 214 0 5476;
#X obj 402 150 int;
#X obj 214 286 bng 15 250 50 0 empty empty empty 17 7 0 10 -262144
-1 -1;
#X obj 192 287 vsl 15 64 0 15000 0 0 empty empty empty 0 -9 0 10 -262144
-1 -1 3000 1;
#X msg 339 211 1 7142;
#X obj 310 150 int;
#X msg 309 186 set 1 \$1;
#X obj 124 286 vsl 15 64 0 1 0 0 empty empty R 0 -9 0 10 -258113 -1
-1 6300 1;
#X obj 142 286 vsl 15 64 0 1 0 0 empty empty G 0 -9 0 10 -4034 -1 -1
6300 1;
#X obj 160 286 vsl 15 64 0 1 0 0 empty empty B 0 -9 0 10 -4160 -1 -1
6300 1;
#X obj 6 -105 gemhead;
#X obj 97 -102 inlet;
#X obj 347 -105 inlet;
#X obj 38 342 outlet;
#X obj 512 436 bng 15 250 50 0 empty empty empty 17 7 0 10 -262144
-1 -1;
#X obj 481 352 bng 15 250 50 0 empty empty empty 17 7 0 10 -262144
-1 -1;
#X obj 859 -65 loadbang;
#X obj 860 -41 float \$1;
#X msg 505 473 write setimg1.auto;
#X obj 751 54 textfile;
#X msg 757 8 read setimg1.auto;
#X obj 555 520 print;
#X obj 541 450 delay 100;
#X obj 791 79 bng 15 250 50 0 empty empty empty 17 7 0 10 -262144 -1
-1;
#X obj 776 113 print list;
#X obj 646 19 print;
#X obj 467 -110 bng 15 250 50 0 empty empty empty 17 7 0 10 -262144
-1 -1;
#X msg 628 -37 print;
#X obj 591 -35 bng 15 250 50 0 empty empty empty 17 7 0 10 -262144
-1 -1;
#X msg 674 -71 rewind;
#X obj 784 -112 bng 15 250 50 0 empty empty empty 17 7 0 10 -262144
-1 -1;
#X obj 742 -73 delay 1;
#X obj 423 474 textfile;
#X obj 697 -117 delay 1;
#X obj 615 -89 delay 1;
#X obj 855 -105 delay 500;
#X msg 80 -45 open \$1;
#X obj 80 -68 openpanel;
#X obj 42 145 pix_image;
#X obj 125 256 bng 15 250 50 0 empty empty empty 17 7 0 10 -262144
-1 -1;
#X obj 180 -40 print;
#X obj 213 22 unpack s s;
#X floatatom 221 321 5 0 0 0 - - -;
#X floatatom 284 321 5 0 0 0 - - -;
#X text 214 337 FADE IN;
#X text 277 337 FADE OUT;
#X msg 160 91 set \$1;
#X obj 475 139 outlet;
#X obj 563 153 outlet;
#X obj 513 209 r nulmem;
#X obj 217 -100 inlet;
#X text 122 354 out;
#X text 193 354 filename;
#X text 311 352 start;
#X text 125 237 fade in;
#X text 290 236 fade out;
#X text 215 236 %fade%;
#X obj 330 270 vsl 15 80 0 100 0 0 empty empty GEM 0 -9 0 10 -262144
-1 -1 5700 1;
#X obj 28 -83 i;
#X msg 24 -58 set \$1;
#X msg 507 391 set \$1 \$2 \$3 \$4 \$5 \$6 \$7;
#X obj 510 347 pack s f f f f f f;
#X obj 445 -72 unpack s f f f f f f;
#X text 1 1 copyright (C) 2009 Anatol Waschke;
#X text 1 13 distributed under GPL (see doc/COPYING);
#X obj 837 231 set_comp_write img;
#X obj 847 -16 set_comp_read img;
#X obj 654 434 s spathrefresh;
#X connect 0 0 3 0;
#X connect 1 0 21 0;
#X connect 2 0 1 4;
#X connect 3 0 1 0;
#X connect 4 0 2 0;
#X connect 4 0 56 0;
#X connect 5 0 8 0;
#X connect 5 0 65 0;
#X connect 6 0 9 0;
#X connect 6 0 23 0;
#X connect 6 0 69 5;
#X connect 7 0 8 0;
#X connect 8 0 4 0;
#X connect 9 0 7 0;
#X connect 9 0 51 0;
#X connect 10 0 12 0;
#X connect 10 0 65 0;
#X connect 11 0 13 0;
#X connect 11 0 23 0;
#X connect 11 0 69 4;
#X connect 12 0 4 0;
#X connect 13 0 14 0;
#X connect 13 0 50 0;
#X connect 14 0 12 0;
#X connect 15 0 1 1;
#X connect 15 0 23 0;
#X connect 15 0 69 1;
#X connect 16 0 1 2;
#X connect 16 0 23 0;
#X connect 16 0 69 2;
#X connect 17 0 1 3;
#X connect 17 0 23 0;
#X connect 17 0 69 3;
#X connect 18 0 46 0;
#X connect 19 0 10 0;
#X connect 20 0 5 0;
#X connect 22 0 30 0;
#X connect 23 0 69 0;
#X connect 24 0 25 0;
#X connect 24 0 38 0;
#X connect 24 0 43 0;
#X connect 25 0 73 0;
#X connect 25 0 74 0;
#X connect 26 0 29 0;
#X connect 26 0 40 0;
#X connect 27 0 32 0;
#X connect 27 0 70 0;
#X connect 27 1 31 0;
#X connect 28 0 27 0;
#X connect 28 0 33 0;
#X connect 30 0 26 0;
#X connect 34 0 70 0;
#X connect 35 0 27 0;
#X connect 36 0 27 0;
#X connect 36 0 11 0;
#X connect 36 0 6 0;
#X connect 37 0 27 0;
#X connect 38 0 39 0;
#X connect 39 0 28 0;
#X connect 39 0 41 0;
#X connect 41 0 37 0;
#X connect 41 0 42 0;
#X connect 42 0 36 0;
#X connect 43 0 38 0;
#X connect 44 0 46 0;
#X connect 44 0 23 0;
#X connect 44 0 49 0;
#X connect 45 0 44 0;
#X connect 45 0 48 0;
#X connect 46 0 0 0;
#X connect 47 0 45 0;
#X connect 49 1 54 0;
#X connect 49 1 69 0;
#X connect 54 0 55 0;
#X connect 57 0 5 0;
#X connect 58 0 2 0;
#X connect 65 0 66 0;
#X connect 65 0 69 6;
#X connect 65 0 23 0;
#X connect 66 0 67 0;
#X connect 67 0 18 0;
#X connect 68 0 22 0;
#X connect 68 0 40 0;
#X connect 68 0 75 0;
#X connect 69 0 68 0;
#X connect 70 0 44 0;
#X connect 70 1 15 0;
#X connect 70 2 16 0;
#X connect 70 3 17 0;
#X connect 70 4 11 0;
#X connect 70 5 6 0;
#X connect 70 6 65 0;
#X connect 73 0 26 0;
#X connect 74 0 28 0;
#X coords 1 -1 2 1 230 150 1 120 220;
