#N canvas 91 205 450 300 10;
#X obj 94 52 inlet;
#X obj 254 32 inlet;
#X obj 73 269 outlet;
#X obj 106 222 f;
#X obj 139 173 select 0;
#X obj 132 199 bng 15 250 50 0 empty empty empty 17 7 0 10 -262144
-1 -1;
#X obj 189 225 f;
#X obj 179 201 bng 15 250 50 0 empty empty empty 17 7 0 10 -262144
-1 -1;
#X obj 204 270 outlet;
#X floatatom 263 182 5 0 0 0 - - -;
#X floatatom 367 182 5 0 0 0 - - -;
#X floatatom 262 133 5 0 0 0 - - -;
#X floatatom 367 131 5 0 0 0 - - -;
#X obj 148 110 f;
#X obj 58 89 bng 15 250 50 0 empty empty empty 17 7 0 10 -262144 -1
-1;
#X obj 206 89 f;
#X obj 203 56 bng 15 250 50 0 empty empty empty 17 7 0 10 -262144 -1
-1;
#X floatatom 266 228 5 0 0 0 - - -;
#X floatatom 365 226 5 0 0 0 - - -;
#X obj 131 145 expr ($f1-$f2);
#X connect 0 0 3 1;
#X connect 0 0 6 1;
#X connect 0 0 11 0;
#X connect 0 0 13 1;
#X connect 0 0 14 0;
#X connect 1 0 12 0;
#X connect 1 0 15 1;
#X connect 1 0 16 0;
#X connect 3 0 2 0;
#X connect 3 0 17 0;
#X connect 4 0 5 0;
#X connect 4 0 9 0;
#X connect 4 1 7 0;
#X connect 4 1 10 0;
#X connect 5 0 3 0;
#X connect 6 0 8 0;
#X connect 6 0 18 0;
#X connect 7 0 6 0;
#X connect 13 0 19 0;
#X connect 14 0 13 0;
#X connect 15 0 19 1;
#X connect 16 0 15 0;
#X connect 19 0 4 0;
#X text 1 1 copyright (C) 2009 Anatol Waschke;
#X text 1 13 distributed under GPL (see doc/COPYING);
This file is part of bai.tu.

    bai.tu is free software: you can redistribute it and/or modify
    it under the terms of the GNU General Public License as published by
    the Free Software Foundation, either version 3 of the License, or
    (at your option) any later version.

    bai.tu is distributed in the hope that it will be useful,
    but WITHOUT ANY WARRANTY; without even the implied warranty of
    MERCHANTABILITY or FITNESS FOR A PARTICULAR PURPOSE.  See the
    GNU General Public License for more details.

    You should have received a copy of the GNU General Public License
    along with bai.tu.  If not, see <http://www.gnu.org/licenses/>.;
