#N canvas 72 311 880 683 10;
#X obj 155 3 inlet;
#X obj 138 235 line;
#X obj 221 171 hsl 80 15 0 1 0 0 empty empty empty -2 -8 0 10 -262144
-1 -1 0 1;
#X obj 242 25 nfader1;
#X obj 218 31 vsl 15 128 0 1 0 0 empty empty level -6 -9 0 10 -262144
-1 -1 8800 1;
#X obj 79 498 outlet;
#X obj 231 261 pack f f;
#X obj 86 130 is_equal;
#X msg 92 181 \$1;
#X msg 230 288 set \$1 \$2;
#X msg 229 312 0.692913 4488.19;
#X obj 289 30 bng 15 250 50 0 empty empty empty 17 7 0 10 -262144 -1
-1;
#X obj 437 3 inlet;
#X obj 558 75 loadbang;
#X msg 454 247 set \$1 \$2;
#X msg 559 248 write lev0.auto;
#X obj 511 352 textfile;
#X msg 568 276 read lev0.auto;
#X obj 457 176 bng 15 250 50 0 empty empty empty 17 7 0 10 -262144
-1 -1;
#X obj 495 184 delay 10;
#X obj 724 203 delay 10;
#X obj 96 70 spigot;
#X obj 289 48 tgl 15 0 empty empty empty 17 7 0 10 -262144 -1 -1 1
1;
#X obj 354 6 inlet;
#X msg 131 39 \$1;
#X obj 96 102 f;
#X msg 358 68 0;
#X msg 376 122 1;
#X obj 115 366 spigot;
#X obj 342 375 select 1 0;
#X obj 201 369 tgl 15 0 empty empty empty 17 7 0 10 -262144 -1 -1 0
1;
#X msg 321 418 1;
#X msg 384 422 0;
#X msg 58 221 0;
#X obj 438 45 r nulmem;
#X obj 728 246 delay 10;
#X obj 731 284 delay 10;
#X msg 609 309 rewind;
#X obj 667 314 bng 15 250 50 0 empty empty empty 17 7 0 10 -262144
-1 -1;
#X obj 445 217 pack f f;
#X obj 512 385 unpack f f;
#X floatatom 510 439 5 0 0 0 - - -;
#X obj 737 334 delay 10;
#X obj 499 284 textfile;
#X obj 738 142 bng 15 250 50 0 empty empty empty 17 7 0 10 -262144
-1 -1;
#X text 1 1 copyright (C) 2009 Anatol Waschke;
#X text 1 13 distributed under GPL (see doc/COPYING);
#X obj 560 129 float \$1;
#X obj 560 171 set_comp_write lev;
#X obj 572 203 set_comp_read lev;
#X connect 0 0 24 0;
#X connect 1 0 2 0;
#X connect 2 0 7 1;
#X connect 2 0 28 0;
#X connect 3 0 6 1;
#X connect 3 0 18 0;
#X connect 3 0 39 1;
#X connect 4 0 6 0;
#X connect 4 0 18 0;
#X connect 4 0 39 0;
#X connect 6 0 9 0;
#X connect 7 1 8 0;
#X connect 8 0 1 0;
#X connect 9 0 10 0;
#X connect 10 0 1 0;
#X connect 11 0 10 0;
#X connect 11 0 4 0;
#X connect 11 0 26 0;
#X connect 12 0 11 0;
#X connect 13 0 20 0;
#X connect 13 0 27 0;
#X connect 13 0 47 0;
#X connect 14 0 43 0;
#X connect 15 0 43 0;
#X connect 16 0 40 0;
#X connect 17 0 16 0;
#X connect 18 0 19 0;
#X connect 18 0 39 0;
#X connect 19 0 15 0;
#X connect 20 0 17 0;
#X connect 20 0 35 0;
#X connect 21 0 25 0;
#X connect 22 0 21 1;
#X connect 22 0 29 0;
#X connect 23 0 27 0;
#X connect 24 0 21 0;
#X connect 25 0 7 0;
#X connect 26 0 22 0;
#X connect 26 0 21 1;
#X connect 27 0 22 0;
#X connect 27 0 21 1;
#X connect 28 0 5 0;
#X connect 29 0 32 0;
#X connect 29 1 31 0;
#X connect 30 0 28 1;
#X connect 31 0 30 0;
#X connect 32 0 30 0;
#X connect 33 0 1 0;
#X connect 34 0 27 0;
#X connect 35 0 37 0;
#X connect 35 0 36 0;
#X connect 36 0 38 0;
#X connect 36 0 42 0;
#X connect 37 0 16 0;
#X connect 38 0 16 0;
#X connect 39 0 14 0;
#X connect 40 0 41 0;
#X connect 40 1 3 0;
#X connect 41 0 4 0;
#X connect 44 0 20 0;
#X connect 47 0 48 0;
#X connect 47 0 49 0;
#X connect 48 0 15 0;
#X connect 49 0 17 0;
#X coords 0 -1 1 1 120 190 1 200 1;
