#N canvas 437 381 758 441 10;
#X obj 50 19 bng 15 250 50 0 empty empty empty 17 7 0 10 -262144 -1
-1;
#X obj 153 25 bng 15 250 50 0 empty empty empty 17 7 0 10 -262144 -1
-1;
#X obj 64 228 snd_module 1;
#X obj 295 157 level 1;
#X obj 97 94 fade_module 1;
#X obj 251 20 bng 15 250 50 0 empty empty empty 17 7 0 10 -262144 -1
-1;
#X obj 580 32 bng 15 250 50 0 empty empty empty 17 7 0 10 -262144 -1
-1;
#X obj 585 70 s nulmem;
#X obj 351 24 bng 15 250 50 0 empty empty empty 17 7 0 10 -262144 -1
-1;
#X obj 473 152 level 2;
#X obj 617 153 level 3;
#X obj 97 385 hsl 400 15 0 1 0 0 empty empty output -2 -8 0 10 -258113
-257985 -1 0 1;
#X connect 0 0 2 0;
#X connect 0 0 4 0;
#X connect 1 0 3 2;
#X connect 2 2 3 0;
#X connect 2 2 9 0;
#X connect 2 2 10 0;
#X connect 2 2 11 0;
#X connect 3 0 2 1;
#X connect 4 0 2 1;
#X connect 5 0 9 2;
#X connect 6 0 7 0;
#X connect 8 0 10 2;
#X connect 9 0 2 1;
#X connect 10 0 2 1;
#X text 1 1 copyright (C) 2009 Anatol Waschke;
#X text 1 13 distributed under GPL (see doc/COPYING);
This file is part of bai.tu.

    bai.tu is free software: you can redistribute it and/or modify
    it under the terms of the GNU General Public License as published by
    the Free Software Foundation, either version 3 of the License, or
    (at your option) any later version.

    bai.tu is distributed in the hope that it will be useful,
    but WITHOUT ANY WARRANTY; without even the implied warranty of
    MERCHANTABILITY or FITNESS FOR A PARTICULAR PURPOSE.  See the
    GNU General Public License for more details.

    You should have received a copy of the GNU General Public License
    along with bai.tu.  If not, see <http://www.gnu.org/licenses/>.;
