#N canvas 160 139 1002 690 10;
#X obj 583 67 loadbang;
#X obj 160 -35 mov_demux;
#X obj 243 153 nfader1;
#X floatatom 471 273 5 0 500 2 Object - -;
#X obj 234 595 line;
#X obj 236 523 pack f f;
#X floatatom 276 297 5 0 0 0 - - -;
#X msg 234 547 set \$1 \$2;
#X msg 232 572 221 7086.61;
#X obj 271 708 s move_out;
#X obj 276 -52 r move_in;
#X obj 246 476 bng 15 250 50 0 empty empty empty 17 7 0 10 -262144
-1 -1;
#X obj 470 151 tgl 30 0 empty empty edit 3 15 0 10 -258113 -1 -1 0
1;
#X obj 273 595 spigot;
#X msg 294 525 \$1;
#X obj 273 620 i;
#X obj 471 189 bng 30 250 50 0 empty empty catch 1 15 0 10 -159808
-1 -1;
#X obj 471 226 bng 30 250 50 0 empty empty GO 5 15 0 18 -260097 -1
-1;
#X msg 520 308 0;
#X obj 322 152 nfader1;
#X obj 320 595 line;
#X obj 322 525 pack f f;
#X floatatom 351 297 5 0 0 0 - - -;
#X msg 333 551 set \$1 \$2;
#X msg 319 570 -230 6732.28;
#X obj 336 480 bng 15 250 50 0 empty empty empty 17 7 0 10 -262144
-1 -1;
#X obj 355 591 spigot;
#X msg 380 525 \$1;
#X obj 357 616 i;
#X obj 398 151 nfader1;
#X obj 396 594 line;
#X obj 398 524 pack f f;
#X floatatom 427 296 5 0 0 0 - - -;
#X msg 409 550 set \$1 \$2;
#X msg 395 569 330 12637.8;
#X obj 402 483 bng 15 250 50 0 empty empty empty 17 7 0 10 -262144
-1 -1;
#X obj 431 590 spigot;
#X msg 458 523 \$1;
#X obj 433 615 i;
#X obj 354 706 print;
#X floatatom 453 691 5 0 0 0 - - -;
#X obj 318 664 mov_mux;
#X obj 31 -11 inlet;
#X text 249 296 X;
#X text 329 297 Y;
#X text 404 296 Z;
#X text 313 316 final position;
#X obj 660 121 f \$1;
#X obj 856 397 textfile;
#X msg 691 229 write mov0.auto;
#X msg 672 253 read mov0.auto;
#X msg 588 408 set \$1 \$2 \$3 \$4 \$5 \$6 \$7 \$8 \$9 \$10;
#X obj 546 418 bng 15 250 50 0 empty empty empty 17 7 0 10 -262144
-1 -1;
#X obj 555 459 delay 100;
#X obj 602 169 delay 10;
#X obj 883 289 bng 15 250 50 0 empty empty empty 17 7 0 10 -262144
-1 -1;
#X obj 812 607 print;
#X obj 743 63 bng 15 250 50 0 empty empty empty 17 7 0 10 -262144 -1
-1;
#X obj 16 517 pack f f f f f f f f f f;
#X obj 698 565 unpack f f f f f f f f f f;
#X obj 642 536 textfile;
#X msg 561 512 rewind;
#X obj 671 483 bng 15 250 50 0 empty empty empty 17 7 0 10 -262144
-1 -1;
#X obj 665 599 print;
#X obj 591 273 delay 10;
#X obj 683 333 delay 10;
#X obj 622 122 bng 15 250 50 0 empty empty empty 17 7 0 10 -262144
-1 -1;
#X obj 603 326 bng 15 250 50 0 empty empty empty 17 7 0 10 -262144
-1 -1;
#X obj 785 251 print;
#X obj 282 71 f;
#X obj 314 71 f;
#X obj 345 71 f;
#X obj 439 19 select 1 0;
#X msg 502 51 1;
#X msg 468 51 0;
#X obj 491 76 tgl 15 0 empty empty empty 17 7 0 10 -262144 -1 -1 0
1;
#X obj 266 9 spigot;
#X obj 312 9 spigot;
#X obj 359 9 spigot;
#X floatatom 261 132 5 0 0 0 - - -;
#X floatatom 339 130 5 0 0 0 - - -;
#X floatatom 414 130 5 0 0 0 - - -;
#X obj 547 101 delay 200;
#X msg 281 47 \$1;
#X msg 352 47 \$1;
#X msg 317 47 \$1;
#X obj 531 184 delay 1;
#X obj 530 221 bng 15 250 50 0 empty empty empty 17 7 0 10 -262144
-1 -1;
#X floatatom 145 124 5 0 0 0 - - -;
#X obj 490 656 s;
#X obj 577 664 s;
#X obj 652 674 s;
#X msg 504 605 symbol movx\$1;
#X msg 558 579 symbol movy\$1;
#X msg 612 595 symbol movz\$1;
#X obj 560 22 r nulmem;
#X text 1 1 copyright (C) 2009 Anatol Waschke;
#X text 1 13 distributed under GPL (see doc/COPYING);
#X obj 679 172 set_comp_write mov;
#X obj 669 202 set_comp_read mov;
#X connect 0 0 47 0;
#X connect 0 0 54 0;
#X connect 0 0 82 0;
#X connect 1 0 76 0;
#X connect 1 1 77 0;
#X connect 1 2 78 0;
#X connect 2 0 5 1;
#X connect 2 0 11 0;
#X connect 2 0 58 3;
#X connect 2 0 67 0;
#X connect 3 0 1 1;
#X connect 3 0 58 9;
#X connect 3 0 67 0;
#X connect 3 0 41 3;
#X connect 3 0 92 0;
#X connect 3 0 93 0;
#X connect 3 0 94 0;
#X connect 4 0 89 0;
#X connect 5 0 7 0;
#X connect 6 0 5 0;
#X connect 6 0 14 0;
#X connect 6 0 58 6;
#X connect 6 0 67 0;
#X connect 7 0 8 0;
#X connect 8 0 4 0;
#X connect 10 0 1 0;
#X connect 11 0 5 0;
#X connect 12 0 13 1;
#X connect 12 0 26 1;
#X connect 12 0 36 1;
#X connect 12 0 72 0;
#X connect 13 0 15 0;
#X connect 14 0 13 0;
#X connect 15 0 89 0;
#X connect 16 0 71 0;
#X connect 16 0 70 0;
#X connect 16 0 69 0;
#X connect 17 0 8 0;
#X connect 17 0 18 0;
#X connect 17 0 34 0;
#X connect 17 0 24 0;
#X connect 17 0 74 0;
#X connect 19 0 21 1;
#X connect 19 0 25 0;
#X connect 19 0 58 4;
#X connect 19 0 67 0;
#X connect 20 0 90 0;
#X connect 21 0 23 0;
#X connect 22 0 21 0;
#X connect 22 0 27 0;
#X connect 22 0 58 7;
#X connect 22 0 67 0;
#X connect 23 0 24 0;
#X connect 24 0 20 0;
#X connect 25 0 21 0;
#X connect 26 0 28 0;
#X connect 27 0 26 0;
#X connect 28 0 40 0;
#X connect 28 0 90 0;
#X connect 29 0 31 1;
#X connect 29 0 35 0;
#X connect 29 0 58 5;
#X connect 29 0 67 0;
#X connect 30 0 91 0;
#X connect 31 0 33 0;
#X connect 32 0 31 0;
#X connect 32 0 37 0;
#X connect 32 0 58 8;
#X connect 32 0 67 0;
#X connect 33 0 34 0;
#X connect 34 0 30 0;
#X connect 35 0 31 0;
#X connect 36 0 38 0;
#X connect 37 0 36 0;
#X connect 38 0 91 0;
#X connect 41 0 9 0;
#X connect 41 0 39 0;
#X connect 42 0 17 0;
#X connect 47 0 98 0;
#X connect 47 0 99 0;
#X connect 48 0 56 0;
#X connect 49 0 48 0;
#X connect 49 0 68 0;
#X connect 50 0 60 0;
#X connect 51 0 48 0;
#X connect 52 0 53 0;
#X connect 53 0 49 0;
#X connect 54 0 50 0;
#X connect 54 0 64 0;
#X connect 55 0 48 0;
#X connect 57 0 47 0;
#X connect 58 0 51 0;
#X connect 58 0 52 0;
#X connect 59 0 69 1;
#X connect 59 1 70 1;
#X connect 59 2 71 1;
#X connect 59 3 2 0;
#X connect 59 4 19 0;
#X connect 59 5 29 0;
#X connect 59 6 6 0;
#X connect 59 7 22 0;
#X connect 59 8 32 0;
#X connect 59 9 3 0;
#X connect 60 0 59 0;
#X connect 60 0 63 0;
#X connect 61 0 60 0;
#X connect 62 0 60 0;
#X connect 64 0 61 0;
#X connect 64 0 65 0;
#X connect 65 0 62 0;
#X connect 66 0 54 0;
#X connect 67 0 58 0;
#X connect 69 0 79 0;
#X connect 69 0 4 0;
#X connect 70 0 80 0;
#X connect 70 0 20 0;
#X connect 71 0 81 0;
#X connect 71 0 30 0;
#X connect 72 0 74 0;
#X connect 72 0 86 0;
#X connect 72 1 73 0;
#X connect 72 1 16 0;
#X connect 73 0 75 0;
#X connect 74 0 75 0;
#X connect 75 0 78 1;
#X connect 75 0 77 1;
#X connect 75 0 76 1;
#X connect 76 0 83 0;
#X connect 77 0 85 0;
#X connect 78 0 84 0;
#X connect 79 0 58 0;
#X connect 80 0 58 1;
#X connect 81 0 58 2;
#X connect 82 0 69 0;
#X connect 82 0 70 0;
#X connect 82 0 71 0;
#X connect 83 0 69 1;
#X connect 83 0 88 0;
#X connect 84 0 71 1;
#X connect 85 0 70 1;
#X connect 86 0 87 0;
#X connect 87 0 6 0;
#X connect 87 0 22 0;
#X connect 87 0 32 0;
#X connect 92 0 89 1;
#X connect 93 0 90 1;
#X connect 94 0 91 1;
#X connect 95 0 16 0;
#X connect 98 0 49 0;
#X connect 99 0 50 0;
#X coords 0 -1 1 1 280 230 1 230 110;
