#N canvas 6 304 1249 669 10;
#X msg 838 5 connect 192.168.0.7 3001;
#X obj 395 31 sequence_sync 3020;
#X floatatom 469 72 5 0 0 0 - - -;
#X obj -4 97 vid_tune_connector localhost;
#X obj -4 32 faca_connector localhost;
#X obj 158 32 colour_connector localhost;
#X obj 256 571 vsl 15 128 0 1 0 0 empty empty empty 0 -9 0 10 -262144
-1 -1 0 1;
#X obj 291 563 video_sphere 3;
#X text 1 1 copyright (C) 2009 Anatol Waschke;
#X text 1 13 distributed under GPL (see doc/COPYING);
#X obj 12 943 bai.version;
#X msg 12 969 version 0.9.48 RC1 - released under GNU-GPL ver.3;
#X obj 878 404 spath /home/anatol/Desktop/pd-test/;
#X text 875 376 edit the parameter to save states in a different directory
always start and end with a "/";
#X obj 1017 144 r cue7;
#X text 1013 106 instead of all the lines you might use a receiver
named cue# (no space) to trigger events;
#X text 879 424 make shure the directory exists and your have permission
to read and write to it;
#X obj 49 783 facas;
#X obj 609 374 colour_module 1;
#X obj 793 180 colour_module 2;
#X obj 36 366 img_module 1;
#X obj 329 376 img_module 2;
#X obj 100 157 vid_module 1 arvore;
#X obj 329 174 vid_module 2 coluna_verm;
#X obj 575 170 vid_module 3 aves;
#X obj 738 562 video_circle 4;
#X obj 524 562 video_cube 2;
#X obj 30 570 video_out 1;
#X connect 0 0 1 3;
#X connect 1 0 2 0;
#X connect 1 1 22 0;
#X connect 1 1 22 1;
#X connect 1 2 23 0;
#X connect 1 2 23 1;
#X connect 1 3 18 0;
#X connect 1 4 18 2;
#X connect 1 4 22 2;
#X connect 1 5 23 2;
#X connect 1 6 20 0;
#X connect 1 6 24 1;
#X connect 1 6 24 0;
#X connect 1 7 21 0;
#X connect 1 8 20 2;
#X connect 1 8 21 2;
#X connect 1 8 24 2;
#X connect 6 0 17 4;
#X connect 10 0 11 0;
#X connect 14 0 19 2;
#X connect 18 0 26 0;
#X connect 18 1 19 1;
#X connect 19 0 27 0;
#X connect 20 0 27 0;
#X connect 21 0 26 0;
#X connect 22 0 25 0;
#X connect 22 0 27 0;
#X connect 23 0 26 0;
#X connect 24 0 7 0;
#X connect 27 0 17 0;
#X connect 27 1 17 1;
#X connect 27 2 17 2;
