#N canvas 307 148 450 300 10;
#X obj 39 170 netsend;
#X obj 26 -31 inlet;
#X msg 190 136 send foo 0;
#X obj 184 -17 inlet;
#X floatatom 124 136 5 0 0 0 - - -;
#X obj 149 53 delay 1;
#X msg 25 94 disconnect;
#X obj 368 112 bng 15 250 50 0 empty empty empty 17 7 0 10 -262144
-1 -1;
#X obj 230 183 print sending \$1;
#X obj 226 39 unpack f;
#X msg 216 72 set send foo \$1;
#X obj 311 -14 r nulmem;
#X msg 260 12 0;
#X text 301 111 disconnect;
#X connect 0 0 4 0;
#X connect 1 0 0 0;
#X connect 2 0 0 0;
#X connect 3 0 5 0;
#X connect 3 0 8 0;
#X connect 3 0 9 0;
#X connect 5 0 2 0;
#X connect 6 0 0 0;
#X connect 7 0 6 0;
#X connect 9 0 10 0;
#X connect 10 0 2 0;
#X connect 11 0 12 0;
#X connect 12 0 9 0;
#X connect 12 0 5 0;
#X coords 0 -1 1 1 300 60 1 100 100;
#X text 1 1 copyright (C) 2009 Anatol Waschke;
#X text 1 13 distributed under GPL (see doc/COPYING);
This file is part of bai.tu.

    bai.tu is free software: you can redistribute it and/or modify
    it under the terms of the GNU General Public License as published by
    the Free Software Foundation, either version 3 of the License, or
    (at your option) any later version.

    bai.tu is distributed in the hope that it will be useful,
    but WITHOUT ANY WARRANTY; without even the implied warranty of
    MERCHANTABILITY or FITNESS FOR A PARTICULAR PURPOSE.  See the
    GNU General Public License for more details.

    You should have received a copy of the GNU General Public License
    along with bai.tu.  If not, see <http://www.gnu.org/licenses/>.;
