#N canvas 163 325 748 454 10;
#X floatatom 442 118 1 0 0 0 - - -;
#X obj 199 62 print faca_received;
#X obj 416 154 vsl 15 128 0 1 0 0 empty empty empty 0 -9 0 10 -258113
-1 -1 6200 1;
#X obj 441 154 vsl 15 128 0 1 0 0 empty empty empty 0 -9 0 10 -4034
-1 -1 0 1;
#X obj 465 154 vsl 15 128 0 1 0 0 empty empty empty 0 -9 0 10 -4160
-1 -1 0 1;
#X floatatom 501 251 5 0 0 0 - - -;
#X floatatom 540 251 5 0 0 0 - - -;
#X floatatom 582 251 5 0 0 0 - - -;
#X floatatom 513 205 5 0 0 0 - - -;
#X floatatom 558 205 5 0 0 0 - - -;
#X obj 134 154 is_equal;
#X obj 134 179 is_equal;
#X obj 134 204 is_equal;
#X obj 198 154 is_equal;
#X obj 198 179 is_equal;
#X obj 198 203 is_equal;
#X obj 263 154 is_equal;
#X obj 262 180 is_equal;
#X floatatom 642 117 5 0 0 0 - - -;
#X obj 568 347 f;
#X obj 620 119 bng 15 250 50 0 empty empty empty 17 7 0 10 -262144
-1 -1;
#X obj 202 12 netreceive 3200;
#X obj 22 173 inlet;
#X obj 271 429 netsend;
#X floatatom 431 118 1 0 0 0 - - -;
#X obj 412 119 bng 15 250 50 0 empty empty empty 17 7 0 10 -262144
-1 -1;
#X msg 233 312 disconnect;
#X obj 291 269 delay 100;
#X msg 627 402 send cmd \$1 10;
#X obj 457 119 bng 15 250 50 0 empty empty empty 17 7 0 10 -262144
-1 -1;
#X msg 287 360 send cmd \$1 1;
#X msg 183 272 send cmd \$1 0;
#X obj 386 431 print faca send;
#X obj 353 372 faca_mux;
#X text 532 178 SIZE;
#X text 522 187 X;
#X text 561 187 Y;
#X text 524 224 POSITION;
#X text 591 231 Z;
#X text 508 235 X;
#X text 547 235 Y;
#X text 566 272 Rotate Z;
#X floatatom 628 273 5 0 0 0 - - -;
#X obj 127 92 faca_demux;
#X obj 560 429 bng 15 250 50 0 empty empty empty 17 7 0 10 -262144
-1 -1;
#X obj 639 346 delay 100;
#X connect 2 0 10 1;
#X connect 2 0 33 0;
#X connect 3 0 11 1;
#X connect 3 0 33 1;
#X connect 4 0 12 1;
#X connect 4 0 33 2;
#X connect 5 0 13 1;
#X connect 5 0 33 3;
#X connect 6 0 14 1;
#X connect 6 0 33 4;
#X connect 7 0 15 1;
#X connect 7 0 33 5;
#X connect 8 0 16 1;
#X connect 8 0 33 6;
#X connect 9 0 17 1;
#X connect 9 0 33 7;
#X connect 10 1 2 0;
#X connect 11 1 3 0;
#X connect 12 1 4 0;
#X connect 13 1 5 0;
#X connect 14 1 6 0;
#X connect 15 1 7 0;
#X connect 16 1 8 0;
#X connect 17 1 9 0;
#X connect 18 0 19 1;
#X connect 19 0 28 0;
#X connect 19 0 33 9;
#X connect 19 0 43 1;
#X connect 20 0 19 0;
#X connect 21 0 1 0;
#X connect 21 0 43 0;
#X connect 21 1 0 0;
#X connect 22 0 23 0;
#X connect 23 0 24 0;
#X connect 25 0 27 0;
#X connect 25 0 31 0;
#X connect 26 0 23 0;
#X connect 27 0 26 0;
#X connect 28 0 23 0;
#X connect 29 0 30 0;
#X connect 30 0 23 0;
#X connect 31 0 23 0;
#X connect 33 0 23 0;
#X connect 33 0 32 0;
#X connect 33 0 44 0;
#X connect 42 0 33 8;
#X connect 43 0 10 0;
#X connect 43 1 11 0;
#X connect 43 2 12 0;
#X connect 43 3 13 0;
#X connect 43 4 14 0;
#X connect 43 5 15 0;
#X connect 43 6 16 0;
#X connect 43 7 17 0;
#X connect 43 8 42 0;
#X connect 44 0 45 0;
#X connect 45 0 20 0;
#X coords 0 -1 1 1 280 220 1 400 80;
#X text 1 1 copyright (C) 2009 Anatol Waschke;
#X text 1 13 distributed under GPL (see doc/COPYING);
This file is part of bai.tu.

    bai.tu is free software: you can redistribute it and/or modify
    it under the terms of the GNU General Public License as published by
    the Free Software Foundation, either version 3 of the License, or
    (at your option) any later version.

    bai.tu is distributed in the hope that it will be useful,
    but WITHOUT ANY WARRANTY; without even the implied warranty of
    MERCHANTABILITY or FITNESS FOR A PARTICULAR PURPOSE.  See the
    GNU General Public License for more details.

    You should have received a copy of the GNU General Public License
    along with bai.tu.  If not, see <http://www.gnu.org/licenses/>.;
