#N canvas 299 130 542 300 10;
#X obj 55 82 sequence_sync;
#X obj 56 191 tgl 15 0 empty empty empty 17 7 0 10 -262144 -1 -1 1
1;
#X obj 96 191 tgl 15 0 empty empty empty 17 7 0 10 -262144 -1 -1 1
1;
#X msg 369 36 connect 10.10.10.111 3001;
#X connect 0 0 1 0;
#X connect 0 1 2 0;
#X connect 0 2 1 0;
#X connect 0 3 2 0;
#X connect 3 0 0 3;
#X text 1 1 copyright (C) 2009 Anatol Waschke;
#X text 1 13 distributed under GPL (see doc/COPYING);
This file is part of bai.tu.

    bai.tu is free software: you can redistribute it and/or modify
    it under the terms of the GNU General Public License as published by
    the Free Software Foundation, either version 3 of the License, or
    (at your option) any later version.

    bai.tu is distributed in the hope that it will be useful,
    but WITHOUT ANY WARRANTY; without even the implied warranty of
    MERCHANTABILITY or FITNESS FOR A PARTICULAR PURPOSE.  See the
    GNU General Public License for more details.

    You should have received a copy of the GNU General Public License
    along with bai.tu.  If not, see <http://www.gnu.org/licenses/>.;
