#N canvas 216 110 665 555 10;
#X obj 272 437 snd_module 1;
#X obj 376 293 fade_module 1;
#X obj 43 120 sequence_sync 3001;
#X obj 36 373 vid_module 1;
#X obj 41 525 video_out;
#X msg 299 27 connect 10.10.10.110 3015;
#X connect 1 0 0 1;
#X connect 2 1 3 1;
#X connect 2 1 3 2;
#X connect 2 5 3 3;
#X connect 2 6 0 0;
#X connect 2 6 1 0;
#X connect 2 8 1 1;
#X connect 3 0 4 0;
#X connect 5 0 2 3;
#X text 1 1 copyright (C) 2009 Anatol Waschke;
#X text 1 13 distributed under GPL (see doc/COPYING);
This file is part of bai.tu.

    bai.tu is free software: you can redistribute it and/or modify
    it under the terms of the GNU General Public License as published by
    the Free Software Foundation, either version 3 of the License, or
    (at your option) any later version.

    bai.tu is distributed in the hope that it will be useful,
    but WITHOUT ANY WARRANTY; without even the implied warranty of
    MERCHANTABILITY or FITNESS FOR A PARTICULAR PURPOSE.  See the
    GNU General Public License for more details.

    You should have received a copy of the GNU General Public License
    along with bai.tu.  If not, see <http://www.gnu.org/licenses/>.;
