#N canvas 1356 96 1577 946 10;
#X obj 166 216 bng 15 250 50 0 empty empty empty 17 7 0 10 -262144
-1 -1;
#X obj 83 127 f;
#X obj 146 128 + 1;
#X floatatom 178 242 5 0 0 0 - - -;
#X obj 199 216 bng 15 250 50 0 empty empty empty 17 7 0 10 -262144
-1 -1;
#X obj 255 118 f;
#X obj 292 113 - 1;
#X floatatom 259 150 5 0 0 0 - - -;
#X obj 243 173 - 1;
#X obj 61 13 inlet go;
#X obj 195 17 inlet go_back;
#X obj 346 17 inlet goto;
#X obj 134 351 outlet;
#X obj 169 332 outlet;
#X obj 188 354 outlet;
#X obj 217 332 outlet;
#X obj 234 355 outlet;
#X obj 264 331 outlet;
#X obj 288 355 outlet;
#X obj 316 331 outlet;
#X obj 338 356 outlet;
#X obj 364 332 outlet;
#X obj 393 357 outlet;
#X obj 106 44 select 32;
#X floatatom 223 66 5 0 0 0 - - -;
#X obj 183 91 select 8;
#X obj 95 271 moses 0;
#X floatatom 72 203 5 0 0 0 - - -;
#X obj 43 168 bng 15 250 50 0 empty empty empty 17 7 0 10 -262144 -1
-1;
#X obj 22 289 s nulmem;
#X obj 413 332 outlet;
#X obj 446 359 outlet;
#X obj 463 332 outlet;
#X obj 495 360 outlet;
#X obj 509 331 outlet;
#X obj 546 360 outlet;
#X obj 555 331 outlet;
#X obj 593 359 outlet;
#X obj 601 332 outlet;
#X obj 190 287 select 1 2 3 4 5 6 7 8 9 10 11 12 13 14 15 16 17 18
19 20;
#X floatatom 460 239 5 0 0 0 - - -;
#X obj 279 456 moses;
#X obj 318 506 bng 15 250 50 0 empty empty empty 17 7 0 10 -262144
-1 -1;
#X obj 357 144 bng 15 250 50 0 empty empty empty 17 7 0 10 -262144
-1 -1;
#X obj 336 55 moses -1;
#X floatatom 387 105 5 0 0 0 - - -;
#X obj 398 80 bng 15 250 50 0 empty empty empty 17 7 0 10 -262144 -1
-1;
#X obj 364 398 + 1;
#X obj 181 451 delay 1000;
#X floatatom 162 490 5 0 0 0 - - -;
#X obj 32 91 delay 15;
#X floatatom 373 240 5 0 0 0 - - -;
#X obj 424 605 netsend;
#X floatatom 270 240 5 0 0 0 - - -;
#X obj 541 445 inlet connect;
#X msg 471 557 send rem \$1;
#X obj 354 240 bng 15 250 50 0 empty empty empty 17 7 0 10 -262144
-1 -1;
#X msg 478 396 disconnect;
#X obj 305 241 bng 15 250 50 0 empty empty empty 17 7 0 10 -262144
-1 -1;
#X obj 504 601 print;
#X obj 546 153 print received;
#X msg 439 450 send max \$1;
#X obj 457 88 cmd_split;
#X obj 571 117 delay 5;
#X obj 518 131 f;
#X obj 489 166 is_equal;
#X obj 408 146 is_equal;
#X obj 465 112 f;
#X floatatom 459 205 5 0 0 0 - - -;
#X obj 440 206 bng 15 250 50 0 empty empty empty 17 7 0 10 -262144
-1 -1;
#X text 267 214 remote;
#X text 268 224 slaves;
#X text 352 214 remote;
#X text 352 224 masters;
#X text 166 228 GO;
#X text 197 228 BACK;
#X text 154 240 MEM;
#X text 410 205 GOTO;
#X text 437 234 MAX;
#X text 437 242 MEM;
#X obj 83 352 outlet;
#X obj 531 27 netreceive \$1;
#X obj 865 460 textfile;
#X msg 890 417 write /home/anatol/Desktop/pd-test/max_mem.auto;
#X msg 687 338 set \$1;
#X obj 740 298 bng 15 250 50 0 empty empty empty 17 7 0 10 -262144
-1 -1;
#X obj 887 385 delay 20;
#X obj 877 155 loadbang;
#X obj 959 501 print;
#X obj 953 145 r nulmem;
#X obj 900 542 print max_mem;
#X obj 705 129 is_equal;
#X obj 1020 459 unpack f;
#X obj 953 181 delay 100;
#X obj 626 237 delay 1000;
#X obj 581 293 f;
#X obj 700 289 bng 15 250 50 0 empty empty empty 17 7 0 10 -262144
-1 -1;
#X msg 888 308 bang;
#X msg 870 252 read /home/anatol/Desktop/pd-test/max_mem.auto;
#X msg 879 279 rewind;
#X obj 963 210 delay 100;
#X text 152 258 #;
#X text 178 258 1;
#X text 206 258 2;
#X text 238 258 3;
#X text 265 258 4;
#X text 295 257 5;
#X text 556 237 6;
#X text 353 256 7;
#X text 386 257 8;
#X text 416 257 9;
#X text 442 256 10;
#X text 472 257 11;
#X text 499 257 12;
#X text 529 257 13;
#X text 559 257 14;
#X text 588 257 15;
#X text 620 257 16;
#X text 651 257 17;
#X text 678 257 18;
#X text 707 257 19;
#X text 728 257 20;
#X text 33 584 copyright (C) 2009 Anatol Waschke;
#X text 33 596 distributed under GPL (see doc/COPYING);
#X obj 548 238 tgl 15 0 null online1 online -8 20 0 10 -262144 -1 -1
1 1;
#X obj 431 30 online;
#X obj 145 11 ontest;
#X obj 10 41 key;
#X obj 796 42 r spath;
#X msg 851 80 set read \$1max_mem.auto;
#X obj 846 203 delay 10;
#X msg 778 108 set write \$1max_mem.auto;
#X msg 56 435 \; cue\$1 bang;
#X text 325 257 6;
#X text 534 190 GOTO;
#X text 153 189 GO;
#X text 324 189 GO BACK;
#X text 682 192 connect to;
#X connect 0 0 1 0;
#X connect 1 0 2 0;
#X connect 1 0 3 0;
#X connect 2 0 1 1;
#X connect 3 0 5 1;
#X connect 3 0 26 0;
#X connect 3 0 39 0;
#X connect 3 0 41 0;
#X connect 3 0 43 0;
#X connect 3 0 55 0;
#X connect 3 0 66 1;
#X connect 3 0 80 0;
#X connect 3 0 132 0;
#X connect 4 0 5 0;
#X connect 5 0 6 0;
#X connect 5 0 7 0;
#X connect 6 0 5 1;
#X connect 7 0 8 0;
#X connect 8 0 3 0;
#X connect 8 0 1 1;
#X connect 9 0 0 0;
#X connect 10 0 4 0;
#X connect 11 0 44 0;
#X connect 23 0 0 0;
#X connect 25 0 4 0;
#X connect 25 0 50 0;
#X connect 26 0 28 0;
#X connect 27 0 3 0;
#X connect 28 0 27 0;
#X connect 28 0 29 0;
#X connect 39 0 12 0;
#X connect 39 1 13 0;
#X connect 39 2 14 0;
#X connect 39 3 15 0;
#X connect 39 4 16 0;
#X connect 39 5 17 0;
#X connect 39 6 18 0;
#X connect 39 7 19 0;
#X connect 39 8 20 0;
#X connect 39 9 21 0;
#X connect 39 10 22 0;
#X connect 39 11 30 0;
#X connect 39 12 31 0;
#X connect 39 13 32 0;
#X connect 39 14 33 0;
#X connect 39 15 34 0;
#X connect 39 16 35 0;
#X connect 39 17 36 0;
#X connect 39 18 37 0;
#X connect 39 19 38 0;
#X connect 40 0 47 0;
#X connect 40 0 61 0;
#X connect 40 0 65 1;
#X connect 40 0 91 1;
#X connect 40 0 95 1;
#X connect 40 0 94 0;
#X connect 41 1 42 0;
#X connect 42 0 48 0;
#X connect 43 0 40 0;
#X connect 44 0 46 0;
#X connect 44 1 1 1;
#X connect 44 1 3 0;
#X connect 45 0 3 0;
#X connect 45 0 1 1;
#X connect 46 0 45 0;
#X connect 47 0 41 1;
#X connect 48 0 49 0;
#X connect 48 0 28 0;
#X connect 49 0 3 0;
#X connect 49 0 1 1;
#X connect 50 0 0 0;
#X connect 52 0 53 0;
#X connect 54 0 52 0;
#X connect 55 0 52 0;
#X connect 55 0 59 0;
#X connect 57 0 52 0;
#X connect 58 0 57 0;
#X connect 61 0 52 0;
#X connect 61 0 59 0;
#X connect 62 0 66 0;
#X connect 62 1 63 0;
#X connect 62 1 64 1;
#X connect 63 0 64 0;
#X connect 64 0 65 0;
#X connect 65 1 40 0;
#X connect 66 1 3 0;
#X connect 66 1 2 0;
#X connect 67 0 44 0;
#X connect 68 0 67 1;
#X connect 69 0 67 0;
#X connect 81 0 60 0;
#X connect 81 0 62 0;
#X connect 81 1 51 0;
#X connect 82 0 90 0;
#X connect 82 0 92 0;
#X connect 83 0 82 0;
#X connect 83 0 88 0;
#X connect 84 0 82 0;
#X connect 84 0 85 0;
#X connect 85 0 86 0;
#X connect 86 0 83 0;
#X connect 87 0 93 0;
#X connect 87 0 130 0;
#X connect 89 0 98 0;
#X connect 89 0 93 0;
#X connect 91 1 40 0;
#X connect 92 0 91 0;
#X connect 93 0 100 0;
#X connect 93 0 99 0;
#X connect 94 0 96 0;
#X connect 95 0 84 0;
#X connect 96 0 95 0;
#X connect 97 0 82 0;
#X connect 98 0 82 0;
#X connect 99 0 82 0;
#X connect 100 0 97 0;
#X connect 126 0 23 0;
#X connect 126 0 24 0;
#X connect 126 0 25 0;
#X connect 127 0 126 0;
#X connect 128 0 129 0;
#X connect 128 0 131 0;
#X connect 129 0 98 0;
#X connect 130 0 98 0;
#X connect 131 0 83 0;
#X coords 0 -1 1 1 600 85 1 150 190;
