#N canvas 1464 135 1270 690 10;
#X obj 164 228 bng 15 250 50 0 empty empty empty 17 7 0 10 -262144
-1 -1;
#X obj 82 166 f;
#X obj 145 167 + 1;
#X floatatom 185 250 5 0 0 0 - - -;
#X obj 197 228 bng 15 250 50 0 empty empty empty 17 7 0 10 -262144
-1 -1;
#X obj 267 121 f;
#X obj 304 116 - 1;
#X floatatom 271 153 5 0 0 0 - - -;
#X obj 255 176 - 1;
#X obj 54 37 inlet go;
#X obj 208 39 inlet go_back;
#X obj 359 31 inlet goto;
#X obj 133 390 outlet;
#X obj 168 371 outlet;
#X obj 187 393 outlet;
#X obj 216 371 outlet;
#X obj 233 394 outlet;
#X obj 263 370 outlet;
#X obj 287 394 outlet;
#X obj 315 370 outlet;
#X obj 337 395 outlet;
#X obj 363 371 outlet;
#X obj 392 396 outlet;
#X obj 105 83 select 32;
#X floatatom 222 105 5 0 0 0 - - -;
#X obj 182 130 select 8;
#X obj 94 310 moses 0;
#X floatatom 61 239 5 0 0 0 - - -;
#X obj 42 207 bng 15 250 50 0 empty empty empty 17 7 0 10 -262144 -1
-1;
#X obj 53 362 s nulmem;
#X obj 412 371 outlet;
#X obj 445 398 outlet;
#X obj 462 371 outlet;
#X obj 494 399 outlet;
#X obj 508 370 outlet;
#X obj 545 399 outlet;
#X obj 554 370 outlet;
#X obj 592 398 outlet;
#X obj 600 371 outlet;
#X obj 189 326 select 1 2 3 4 5 6 7 8 9 10 11 12 13 14 15 16 17 18
19 20;
#X floatatom 449 248 5 0 0 0 - - -;
#X obj 278 495 moses;
#X obj 273 545 bng 15 250 50 0 empty empty empty 17 7 0 10 -262144
-1 -1;
#X obj 317 545 bng 15 250 50 0 empty empty empty 17 7 0 10 -262144
-1 -1;
#X obj 356 183 bng 15 250 50 0 empty empty empty 17 7 0 10 -262144
-1 -1;
#X obj 361 69 moses -1;
#X floatatom 410 130 5 0 0 0 - - -;
#X obj 411 107 bng 15 250 50 0 empty empty empty 17 7 0 10 -262144
-1 -1;
#X obj 363 437 + 1;
#X obj 180 490 delay 1000;
#X floatatom 161 529 5 0 0 0 - - -;
#X obj 31 130 delay 15;
#X text 397 247 Mem Max;
#X text 1 1 copyright (C) 2009 Anatol Waschke;
#X text 1 13 distributed under GPL (see doc/COPYING);
#X obj 938 386 textfile;
#X msg 845 389 set \$1;
#X obj 898 349 bng 15 250 50 0 empty empty empty 17 7 0 10 -262144
-1 -1;
#X obj 960 311 delay 20;
#X obj 950 81 loadbang;
#X obj 1032 427 print;
#X obj 853 131 r nulmem;
#X obj 973 468 print max_mem;
#X obj 844 227 is_equal;
#X obj 1093 385 unpack f;
#X obj 1026 107 delay 100;
#X obj 784 288 delay 1000;
#X obj 739 344 f;
#X obj 858 340 bng 15 250 50 0 empty empty empty 17 7 0 10 -262144
-1 -1;
#X msg 961 234 bang;
#X msg 952 205 rewind;
#X obj 1036 136 delay 100;
#X msg 963 343 write /home/anatol/Desktop/pd-test/max_seq.auto;
#X msg 943 178 read /home/anatol/Desktop/pd-test/max_seq.auto;
#X text 154 198 go;
#X text 296 201 go back;
#X text 469 200 goto;
#X obj 645 399 outlet;
#X msg 48 442 \; cue\$1 bang;
#X obj 306 248 tgl 15 0 null online1 online -8 20 0 10 -262144 -1 -1
0 1;
#X obj 159 50 ontest;
#X obj 158 28 key;
#X obj 446 32 online;
#X obj 592 78 r spath;
#X obj 946 138 delay 10;
#X msg 624 119 set read \$1max_seq.auto;
#X msg 599 149 set write \$1max_seq.auto;
#X connect 0 0 1 0;
#X connect 1 0 2 0;
#X connect 1 0 3 0;
#X connect 2 0 1 1;
#X connect 3 0 5 1;
#X connect 3 0 26 0;
#X connect 3 0 39 0;
#X connect 3 0 41 0;
#X connect 3 0 44 0;
#X connect 3 0 78 0;
#X connect 4 0 5 0;
#X connect 5 0 6 0;
#X connect 5 0 7 0;
#X connect 6 0 5 1;
#X connect 7 0 8 0;
#X connect 8 0 3 0;
#X connect 8 0 1 1;
#X connect 9 0 0 0;
#X connect 10 0 4 0;
#X connect 11 0 45 0;
#X connect 23 0 0 0;
#X connect 25 0 4 0;
#X connect 25 0 51 0;
#X connect 26 0 28 0;
#X connect 27 0 3 0;
#X connect 28 0 27 0;
#X connect 28 0 29 0;
#X connect 39 0 12 0;
#X connect 39 1 13 0;
#X connect 39 2 14 0;
#X connect 39 3 15 0;
#X connect 39 4 16 0;
#X connect 39 5 17 0;
#X connect 39 6 18 0;
#X connect 39 7 19 0;
#X connect 39 8 20 0;
#X connect 39 9 21 0;
#X connect 39 10 22 0;
#X connect 39 11 30 0;
#X connect 39 12 31 0;
#X connect 39 13 32 0;
#X connect 39 14 33 0;
#X connect 39 15 34 0;
#X connect 39 16 35 0;
#X connect 39 17 36 0;
#X connect 39 18 37 0;
#X connect 39 19 38 0;
#X connect 39 20 77 0;
#X connect 40 0 48 0;
#X connect 40 0 63 1;
#X connect 40 0 66 0;
#X connect 40 0 67 1;
#X connect 41 0 42 0;
#X connect 41 1 43 0;
#X connect 43 0 49 0;
#X connect 44 0 40 0;
#X connect 45 0 47 0;
#X connect 45 1 1 1;
#X connect 45 1 3 0;
#X connect 46 0 3 0;
#X connect 46 0 1 1;
#X connect 47 0 46 0;
#X connect 48 0 41 1;
#X connect 49 0 50 0;
#X connect 49 0 28 0;
#X connect 50 0 3 0;
#X connect 50 0 1 1;
#X connect 51 0 0 0;
#X connect 55 0 62 0;
#X connect 55 0 64 0;
#X connect 56 0 55 0;
#X connect 56 0 57 0;
#X connect 57 0 58 0;
#X connect 58 0 72 0;
#X connect 59 0 65 0;
#X connect 59 0 84 0;
#X connect 61 0 73 0;
#X connect 61 0 65 0;
#X connect 63 1 40 0;
#X connect 64 0 63 0;
#X connect 65 0 71 0;
#X connect 65 0 70 0;
#X connect 66 0 68 0;
#X connect 67 0 56 0;
#X connect 68 0 67 0;
#X connect 69 0 55 0;
#X connect 70 0 55 0;
#X connect 71 0 69 0;
#X connect 72 0 55 0;
#X connect 72 0 60 0;
#X connect 73 0 55 0;
#X connect 80 0 23 0;
#X connect 80 0 24 0;
#X connect 80 0 25 0;
#X connect 81 0 80 0;
#X connect 83 0 85 0;
#X connect 83 0 86 0;
#X connect 84 0 73 0;
#X connect 85 0 73 0;
#X connect 86 0 72 0;
#X coords 0 -1 1 1 350 80 1 150 200;
