#N canvas 1458 87 1122 773 10;
#X msg 268 120 start;
#X msg 378 98 stop;
#X obj 7 39 bng 15 250 50 0 empty empty empty 17 7 0 10 -262144 -1
-1;
#X obj 164 56 openpanel;
#X obj 301 49 select 1;
#X obj 114 40 tgl 15 0 empty empty empty 17 7 0 10 -262144 -1 -1 0
1;
#X obj 88 -56 bng 15 250 50 0 empty empty empty 17 7 0 10 -262144 -1
-1;
#X obj 109 212 readsf~ 2;
#X msg 104 146 open /home/anatol/Music/01.wav;
#X msg 148 96 set open \$1;
#X obj 357 79 bng 15 250 50 0 empty empty empty 17 7 0 10 -262144 -1
-1;
#X obj 292 72 bng 15 250 50 0 empty empty empty 17 7 0 10 -262144 -1
-1;
#X obj 90 -89 inlet;
#X msg 48 134 set \$1;
#X obj 91 260 *~;
#X obj 134 268 *~;
#X obj 304 -70 inlet;
#X obj 531 150 loadbang;
#X msg 510 204 \; pd dsp 1 \;;
#X obj 747 324 bng 15 250 50 0 empty empty empty 17 7 0 10 -262144
-1 -1;
#X obj 789 -69 loadbang;
#X obj 790 -35 float \$1;
#X msg 740 361 write /home/anatol/Desktop/pd-test/snd0.auto;
#X obj 681 50 textfile;
#X msg 687 17 read /home/anatol/Desktop/pd-test/snd0.auto;
#X obj 737 420 print;
#X obj 776 338 delay 100;
#X obj 721 75 bng 15 250 50 0 empty empty empty 17 7 0 10 -262144 -1
-1;
#X obj 706 109 print list;
#X obj 576 15 print;
#X msg 558 -41 print;
#X obj 521 -39 bng 15 250 50 0 empty empty empty 17 7 0 10 -262144
-1 -1;
#X msg 604 -75 rewind;
#X obj 714 -116 bng 15 250 50 0 empty empty empty 17 7 0 10 -262144
-1 -1;
#X obj 672 -77 delay 1;
#X obj 627 -121 delay 1;
#X obj 545 -93 delay 1;
#X obj 785 -109 delay 500;
#X obj 193 -88 r nulmem;
#X msg 132 -31 set 0;
#X obj 198 -31 bng 15 250 50 0 empty empty empty 17 7 0 10 -262144
-1 -1;
#X obj 425 -67 inlet;
#X msg 73 -32 set 1;
#X obj 422 12 unpack s;
#X floatatom 355 -11 5 0 0 0 - - -;
#X msg 403 138 set \$1;
#X msg 432 181 0.505517;
#X obj 216 321 bng 15 250 50 0 empty empty empty 17 7 0 10 -262144
-1 -1;
#X obj 469 142 bng 15 250 50 0 empty empty empty 17 7 0 10 -262144
-1 -1;
#X obj 133 23 vsl 15 30 0 1 0 0 empty empty empty 0 -9 0 10 -262144
-1 -1 0 1;
#X obj 405 228 line~;
#X obj 385 363 delay 1;
#X obj 331 401 outlet;
#X text 4 15 start;
#X text 59 14 fade in;
#X text 100 55 fade out;
#X text 122 2 stop;
#X text 1 1 copyright (C) 2009 Anatol Waschke;
#X text 1 13 distributed under GPL (see doc/COPYING);
#X obj 792 47 set_comp_write snd;
#X obj 794 -11 set_comp_read snd;
#X obj 87 393 outlet~;
#X obj 150 393 outlet~;
#X connect 0 0 7 0;
#X connect 1 0 7 0;
#X connect 2 0 3 0;
#X connect 3 0 9 0;
#X connect 3 0 13 0;
#X connect 4 0 11 0;
#X connect 4 1 10 0;
#X connect 5 0 4 0;
#X connect 6 0 42 0;
#X connect 6 0 0 0;
#X connect 7 0 14 0;
#X connect 7 1 15 0;
#X connect 7 2 47 0;
#X connect 8 0 7 0;
#X connect 9 0 8 0;
#X connect 10 0 1 0;
#X connect 11 0 8 0;
#X connect 11 0 0 0;
#X connect 12 0 6 0;
#X connect 13 0 19 0;
#X connect 13 0 23 0;
#X connect 14 0 61 0;
#X connect 15 0 62 0;
#X connect 16 0 44 0;
#X connect 17 0 18 0;
#X connect 19 0 26 0;
#X connect 20 0 21 0;
#X connect 20 0 33 0;
#X connect 20 0 37 0;
#X connect 21 0 59 0;
#X connect 21 0 60 0;
#X connect 22 0 25 0;
#X connect 22 0 23 0;
#X connect 23 0 28 0;
#X connect 23 0 43 0;
#X connect 23 1 27 0;
#X connect 24 0 23 0;
#X connect 24 0 29 0;
#X connect 26 0 22 0;
#X connect 30 0 23 0;
#X connect 31 0 23 0;
#X connect 32 0 23 0;
#X connect 33 0 34 0;
#X connect 34 0 24 0;
#X connect 34 0 35 0;
#X connect 35 0 32 0;
#X connect 35 0 36 0;
#X connect 36 0 31 0;
#X connect 37 0 33 0;
#X connect 38 0 1 0;
#X connect 38 0 39 0;
#X connect 38 0 40 0;
#X connect 39 0 5 0;
#X connect 40 0 8 0;
#X connect 41 0 39 0;
#X connect 41 0 40 0;
#X connect 42 0 5 0;
#X connect 43 0 9 0;
#X connect 44 0 45 0;
#X connect 44 0 48 0;
#X connect 44 0 49 0;
#X connect 45 0 46 0;
#X connect 46 0 50 0;
#X connect 48 0 46 0;
#X connect 49 0 45 0;
#X connect 49 0 51 0;
#X connect 49 0 52 0;
#X connect 50 0 14 1;
#X connect 50 0 15 1;
#X connect 51 0 48 0;
#X connect 59 0 22 0;
#X connect 60 0 24 0;
#X coords 0 -1 1 1 150 70 1 2 2;
