#N canvas 460 521 577 388 10;
#X obj 104 117 symbol \$1;
#X obj 158 5 loadbang;
#X obj 59 228 s spath \$1;
#X msg 180 151 set \$1;
#X msg 206 196 /home/anatol/Desktop/pd-test/;
#X obj 192 74 metro 500;
#X obj 192 93 bng 15 250 50 0 empty empty empty 17 7 0 10 -262144 -1
-1;
#X obj 192 55 bng 15 250 50 0 empty empty empty 17 7 0 10 -262144 -1
-1;
#X connect 0 0 2 0;
#X connect 0 0 3 0;
#X connect 1 0 0 0;
#X connect 1 0 7 0;
#X connect 3 0 4 0;
#X connect 5 0 6 0;
#X connect 6 0 0 0;
#X connect 7 0 5 0;
