#N canvas 226 321 885 447 10;
#X obj 59 17 inlet;
#X obj 60 50 unpack s f;
#X obj 39 283 outlet;
#X obj 84 283 outlet;
#X floatatom 201 91 5 0 0 0 - - -;
#X obj 41 214 f;
#X obj 42 176 bng 15 250 50 0 empty empty empty 17 7 0 10 -262144 -1
-1;
#X obj 77 213 f;
#X obj 77 176 bng 15 250 50 0 empty empty empty 17 7 0 10 -262144 -1
-1;
#X obj 130 282 outlet;
#X obj 112 213 f;
#X obj 111 177 bng 15 250 50 0 empty empty empty 17 7 0 10 -262144
-1 -1;
#X obj 174 282 outlet;
#X obj 142 213 f;
#X obj 141 176 bng 15 250 50 0 empty empty empty 17 7 0 10 -262144
-1 -1;
#X obj 217 282 outlet;
#X obj 179 212 f;
#X obj 177 175 bng 15 250 50 0 empty empty empty 17 7 0 10 -262144
-1 -1;
#X obj 262 282 outlet;
#X obj 208 212 f;
#X obj 201 175 bng 15 250 50 0 empty empty empty 17 7 0 10 -262144
-1 -1;
#X obj 306 282 outlet;
#X obj 238 211 f;
#X obj 236 176 bng 15 250 50 0 empty empty empty 17 7 0 10 -262144
-1 -1;
#X obj 349 282 outlet;
#X obj 271 212 f;
#X obj 269 173 bng 15 250 50 0 empty empty empty 17 7 0 10 -262144
-1 -1;
#X obj 344 210 f;
#X obj 333 174 bng 15 250 50 0 empty empty empty 17 7 0 10 -262144
-1 -1;
#X text 379 202 store the parameter for each command;
#X text 171 52 separate command string and parameter;
#X text 102 23 hi;
#X text 130 23 wi;
#X text 158 22 xpos;
#X text 199 22 ypos;
#X text 237 22 zpos;
#X text 277 22 xkey;
#X text 310 22 ykey;
#X text 373 21 run;
#X text 345 120 analyze the command string and bang the parameter to
separate outletes the last being invalid cmd's;
#X text 404 22 N/A;
#X obj 47 126 select hi wi xpos ypos zpos xkey ykey zkey run;
#X obj 395 283 outlet;
#X obj 310 209 f;
#X obj 299 173 bng 15 250 50 0 empty empty empty 17 7 0 10 -262144
-1 -1;
#X text 342 21 zkey;
#X obj 444 284 outlet;
#X connect 0 0 1 0;
#X connect 1 0 41 0;
#X connect 1 1 4 0;
#X connect 1 1 5 1;
#X connect 1 1 7 1;
#X connect 1 1 10 1;
#X connect 1 1 13 1;
#X connect 1 1 16 1;
#X connect 1 1 22 1;
#X connect 1 1 25 1;
#X connect 1 1 27 1;
#X connect 1 1 19 1;
#X connect 1 1 43 1;
#X connect 5 0 2 0;
#X connect 6 0 5 0;
#X connect 7 0 3 0;
#X connect 8 0 7 0;
#X connect 10 0 9 0;
#X connect 11 0 10 0;
#X connect 13 0 12 0;
#X connect 14 0 13 0;
#X connect 16 0 15 0;
#X connect 17 0 16 0;
#X connect 19 0 18 0;
#X connect 20 0 19 0;
#X connect 22 0 21 0;
#X connect 23 0 22 0;
#X connect 25 0 24 0;
#X connect 26 0 25 0;
#X connect 27 0 46 0;
#X connect 28 0 27 0;
#X connect 41 0 6 0;
#X connect 41 1 8 0;
#X connect 41 2 11 0;
#X connect 41 3 14 0;
#X connect 41 4 17 0;
#X connect 41 5 20 0;
#X connect 41 6 23 0;
#X connect 41 7 26 0;
#X connect 41 8 44 0;
#X connect 41 9 28 0;
#X connect 43 0 42 0;
#X connect 44 0 43 0;
#X coords 0 -1 1 1 330 40 1 100 1;
#X text 1 1 copyright (C) 2009 Anatol Waschke;
#X text 1 13 distributed under GPL (see doc/COPYING);
This file is part of bai.tu.

    bai.tu is free software: you can redistribute it and/or modify
    it under the terms of the GNU General Public License as published by
    the Free Software Foundation, either version 3 of the License, or
    (at your option) any later version.

    bai.tu is distributed in the hope that it will be useful,
    but WITHOUT ANY WARRANTY; without even the implied warranty of
    MERCHANTABILITY or FITNESS FOR A PARTICULAR PURPOSE.  See the
    GNU General Public License for more details.

    You should have received a copy of the GNU General Public License
    along with bai.tu.  If not, see <http://www.gnu.org/licenses/>.;
