#N canvas 0 24 1240 682 10;
#X obj 77 48 gemhead;
#X obj 492 79 hsl 128 15 0 1 0 0 empty empty empty -2 -8 0 10 -262144
-1 -1 0 1;
#X obj 248 267 line;
#X obj 563 100 bng 15 250 50 0 empty empty empty 17 7 0 10 -262144
-1 -1;
#X obj 538 100 vsl 15 64 0 15000 0 0 empty empty empty 0 -9 0 10 -262144
-1 -1 0 1;
#X msg 391 222 set 0 \$1;
#X msg 391 250 0 4761;
#X obj 392 186 int;
#X obj 483 100 bng 15 250 50 0 empty empty empty 17 7 0 10 -262144
-1 -1;
#X obj 462 102 vsl 15 64 0 15000 0 0 empty empty empty 0 -9 0 10 -262144
-1 -1 0 1;
#X msg 319 224 1 1428;
#X obj 320 160 int;
#X msg 319 196 set 1 \$1;
#X obj 344 348 outlet;
#X obj 78 274 pix_texture;
#X obj 80 347 colorRGB;
#X obj 79 312 alpha;
#X obj 71 427 outlet;
#X msg 149 116 open \$1;
#X obj 149 93 openpanel;
#X obj 462 79 bng 15 250 50 0 empty empty empty 17 7 0 10 -262144 -1
-1;
#X obj 268 39 inlet;
#X obj 362 37 inlet;
#X obj 79 209 pix_film;
#X obj 589 -12 inlet;
#X obj 418 24 int;
#X msg 229 139 auto \$1;
#X obj 628 79 tgl 15 0 empty empty empty 17 7 0 10 -262144 -1 -1 0
1;
#X obj 244 88 bng 15 250 50 0 empty empty empty 17 7 0 10 -262144 -1
-1;
#X obj 258 4 inlet;
#X obj 737 384 bng 15 250 50 0 empty empty empty 17 7 0 10 -262144
-1 -1;
#X obj 694 322 bng 15 250 50 0 empty empty empty 17 7 0 10 -262144
-1 -1;
#X obj 970 -22 loadbang;
#X obj 972 1 float \$1;
#X msg 730 421 write vid0.auto;
#X obj 862 97 textfile;
#X msg 868 51 read vid0.auto;
#X obj 780 468 print;
#X obj 766 398 delay 100;
#X obj 902 122 bng 15 250 50 0 empty empty empty 17 7 0 10 -262144
-1 -1;
#X obj 887 156 print list;
#X obj 757 62 print;
#X msg 739 6 print;
#X obj 702 8 bng 15 250 50 0 empty empty empty 17 7 0 10 -262144 -1
-1;
#X msg 785 -28 rewind;
#X obj 895 -69 bng 15 250 50 0 empty empty empty 17 7 0 10 -262144
-1 -1;
#X obj 853 -30 delay 1;
#X obj 648 422 textfile;
#X obj 808 -74 delay 1;
#X obj 726 -46 delay 1;
#X obj 966 -62 delay 500;
#X obj 599 234 unpack s s;
#X obj 185 255 bng 15 250 50 0 empty empty empty 17 7 0 10 -262144
-1 -1;
#X floatatom 163 305 5 0 0 0 - - -;
#X floatatom 470 19 5 0 0 0 - - -;
#X obj 483 -9 loadbang;
#X text 563 121 FADE OUT;
#X floatatom 567 150 5 0 0 0 - - -;
#X floatatom 484 151 5 0 0 0 - - -;
#X text 480 120 FADE IN;
#X obj 434 355 outlet;
#X obj 641 8 r nulmem;
#X obj 677 61 delay 50;
#X msg 693 99 set 0;
#X obj 544 223 delay;
#X floatatom 330 103 5 0 0 0 - - -;
#X obj 509 222 bng 15 250 50 0 empty empty empty 17 7 0 10 -262144
-1 -1;
#X obj 190 191 max 1;
#X obj 238 353 unpack 0 0 0;
#X floatatom 505 178 10 0 0 0 - - -;
#X text 458 180 Frames:;
#X obj 622 111 vsl 15 80 0 100 0 0 empty empty GEM 0 -9 0 10 -262144
-1 -1 0 1;
#X obj 723 317 pack s f f f f;
#X msg 720 361 set \$1 \$2 \$3 \$4 \$5;
#X obj 561 -98 unpack s f f f f;
#X obj 296 -44 i;
#X msg 231 -68 set \$1;
#X text 456 194 out;
#X text 517 193 start/stop;
#X text 617 194 fade;
#X text 451 61 start/stop;
#X text 539 61 FADE;
#X text 520 61 in;
#X text 568 61 out;
#X text 614 60 frame;
#X text 1 1 copyright (C) 2009 Anatol Waschke;
#X text 1 13 distributed under GPL (see doc/COPYING);
#X obj 985 267 set_comp_write vid;
#X obj 865 21 set_comp_read vid;
#X connect 0 0 23 0;
#X connect 1 0 15 4;
#X connect 2 0 1 0;
#X connect 2 0 60 0;
#X connect 3 0 6 0;
#X connect 3 0 64 0;
#X connect 3 0 71 0;
#X connect 4 0 7 0;
#X connect 5 0 6 0;
#X connect 6 0 2 0;
#X connect 7 0 5 0;
#X connect 7 0 31 0;
#X connect 7 0 57 0;
#X connect 7 0 72 2;
#X connect 8 0 10 0;
#X connect 8 0 71 0;
#X connect 9 0 11 0;
#X connect 10 0 2 0;
#X connect 11 0 12 0;
#X connect 11 0 31 0;
#X connect 11 0 58 0;
#X connect 11 0 72 1;
#X connect 12 0 10 0;
#X connect 14 0 16 0;
#X connect 15 0 17 0;
#X connect 16 0 15 0;
#X connect 18 0 23 0;
#X connect 18 0 51 0;
#X connect 18 0 31 0;
#X connect 19 0 18 0;
#X connect 20 0 19 0;
#X connect 21 0 8 0;
#X connect 22 0 3 0;
#X connect 23 0 14 0;
#X connect 23 1 68 0;
#X connect 23 2 52 0;
#X connect 24 0 54 0;
#X connect 25 0 67 0;
#X connect 25 0 72 3;
#X connect 26 0 23 0;
#X connect 27 0 26 0;
#X connect 28 0 27 0;
#X connect 28 0 13 0;
#X connect 29 0 28 0;
#X connect 30 0 38 0;
#X connect 31 0 72 0;
#X connect 32 0 33 0;
#X connect 32 0 45 0;
#X connect 32 0 50 0;
#X connect 33 0 87 0;
#X connect 33 0 88 0;
#X connect 34 0 37 0;
#X connect 34 0 47 0;
#X connect 35 0 40 0;
#X connect 35 0 74 0;
#X connect 35 1 39 0;
#X connect 36 0 35 0;
#X connect 36 0 41 0;
#X connect 38 0 34 0;
#X connect 42 0 35 0;
#X connect 43 0 35 0;
#X connect 44 0 35 0;
#X connect 45 0 46 0;
#X connect 46 0 36 0;
#X connect 46 0 48 0;
#X connect 48 0 44 0;
#X connect 48 0 49 0;
#X connect 49 0 43 0;
#X connect 50 0 45 0;
#X connect 51 1 72 0;
#X connect 52 0 53 0;
#X connect 53 0 15 4;
#X connect 54 0 25 0;
#X connect 55 0 54 0;
#X connect 57 0 64 1;
#X connect 61 0 3 0;
#X connect 61 0 45 0;
#X connect 61 0 62 0;
#X connect 62 0 63 0;
#X connect 63 0 27 0;
#X connect 64 0 66 0;
#X connect 65 0 26 0;
#X connect 66 0 65 0;
#X connect 66 0 63 0;
#X connect 66 0 54 0;
#X connect 67 0 23 1;
#X connect 68 0 69 0;
#X connect 71 0 72 4;
#X connect 71 0 31 0;
#X connect 71 0 75 0;
#X connect 72 0 73 0;
#X connect 73 0 30 0;
#X connect 73 0 47 0;
#X connect 74 0 18 0;
#X connect 74 1 9 0;
#X connect 74 2 4 0;
#X connect 74 3 25 0;
#X connect 74 4 71 0;
#X connect 75 0 76 0;
#X connect 76 0 0 0;
#X connect 87 0 34 0;
#X connect 88 0 36 0;
#X coords 0 -1 1 1 200 160 1 450 50;
