#N canvas 1375 212 792 485 10;
#X obj 75 29 inlet;
#X obj 235 31 inlet;
#X obj 201 81 f;
#X obj 179 55 bng 15 250 50 0 empty empty empty 17 7 0 10 -262144 -1
-1;
#X obj 89 101 unpack s f f;
#X obj 204 140 is_equal;
#X obj 26 108 bng 15 250 50 0 empty empty empty 17 7 0 10 -262144 -1
-1;
#X obj 56 157 symbol;
#X obj 23 125 delay 10;
#X obj 46 263 bng 15 250 50 0 empty empty empty 17 7 0 10 -262144 -1
-1;
#X obj 41 289 f;
#X obj 41 435 outlet;
#X obj 99 262 bng 15 250 50 0 empty empty empty 17 7 0 10 -262144 -1
-1;
#X obj 94 288 f;
#X obj 94 434 outlet;
#X obj 150 261 bng 15 250 50 0 empty empty empty 17 7 0 10 -262144
-1 -1;
#X obj 145 287 f;
#X obj 145 433 outlet;
#X obj 201 261 bng 15 250 50 0 empty empty empty 17 7 0 10 -262144
-1 -1;
#X obj 196 287 f;
#X obj 196 433 outlet;
#X obj 251 261 bng 15 250 50 0 empty empty empty 17 7 0 10 -262144
-1 -1;
#X obj 246 287 f;
#X obj 246 433 outlet;
#X obj 304 263 bng 15 250 50 0 empty empty empty 17 7 0 10 -262144
-1 -1;
#X obj 299 289 f;
#X obj 299 435 outlet;
#X obj 356 262 bng 15 250 50 0 empty empty empty 17 7 0 10 -262144
-1 -1;
#X obj 351 288 f;
#X obj 351 434 outlet;
#X obj 405 261 bng 15 250 50 0 empty empty empty 17 7 0 10 -262144
-1 -1;
#X obj 400 287 f;
#X obj 400 433 outlet;
#X obj 569 65 bng 15 250 50 0 empty empty empty 17 7 0 10 -262144 -1
-1;
#X obj 564 91 f;
#X obj 500 198 bng 15 250 50 0 empty empty empty 17 7 0 10 -262144
-1 -1;
#X obj 500 218 s rr_0;
#X obj 545 198 bng 15 250 50 0 empty empty empty 17 7 0 10 -262144
-1 -1;
#X obj 545 218 s rr_1;
#X obj 589 198 bng 15 250 50 0 empty empty empty 17 7 0 10 -262144
-1 -1;
#X obj 589 218 s rr_2;
#X obj 633 198 bng 15 250 50 0 empty empty empty 17 7 0 10 -262144
-1 -1;
#X obj 633 218 s rr_3;
#X obj 678 198 bng 15 250 50 0 empty empty empty 17 7 0 10 -262144
-1 -1;
#X obj 678 218 s rr_4;
#X obj 723 198 bng 15 250 50 0 empty empty empty 17 7 0 10 -262144
-1 -1;
#X obj 723 218 s rr_5;
#X text 305 123 hi;
#X text 327 123 wi;
#X text 356 123 xpos;
#X text 395 123 ypos;
#X text 430 123 zpos;
#X text 465 123 xkey;
#X text 493 123 ykey;
#X text 521 123 zkey;
#X floatatom 250 99 5 0 0 0 - - -;
#X obj 567 37 select run;
#X obj 130 186 select hi wi xpos ypos zpos xkey ykey zkey run;
#X obj 429 240 bng 15 250 50 0 empty empty empty 17 7 0 10 -262144
-1 -1;
#X obj 447 288 i;
#X obj 447 312 select 6;
#X obj 53 348 bng 15 250 50 0 empty empty empty 17 7 0 10 -262144 -1
-1;
#X floatatom 51 316 5 0 0 0 - - -;
#X obj 104 348 delay 10;
#X obj 168 347 delay 10;
#X obj 235 347 delay 10;
#X obj 312 347 delay 10;
#X obj 377 346 delay 10;
#X obj 443 346 delay 10;
#X obj 444 392 delay 10;
#X obj 566 124 select 0 1 2 3 4 5 6;
#X obj 768 219 s rr_6;
#X obj 768 194 bng 15 250 50 0 empty empty empty 17 7 0 10 -262144
-1 -1;
#X msg 546 297 100;
#X obj 543 257 loadbang;
#X connect 0 0 3 0;
#X connect 0 0 4 0;
#X connect 1 0 2 1;
#X connect 2 0 5 1;
#X connect 2 0 55 0;
#X connect 3 0 2 0;
#X connect 4 0 7 1;
#X connect 4 0 56 0;
#X connect 4 1 5 0;
#X connect 4 2 10 1;
#X connect 4 2 13 1;
#X connect 4 2 16 1;
#X connect 4 2 19 1;
#X connect 4 2 22 1;
#X connect 4 2 25 1;
#X connect 4 2 28 1;
#X connect 4 2 31 1;
#X connect 4 2 34 1;
#X connect 4 2 59 1;
#X connect 5 0 6 0;
#X connect 6 0 8 0;
#X connect 7 0 57 0;
#X connect 8 0 7 0;
#X connect 9 0 10 0;
#X connect 10 0 11 0;
#X connect 10 0 62 0;
#X connect 12 0 13 0;
#X connect 13 0 14 0;
#X connect 15 0 16 0;
#X connect 16 0 17 0;
#X connect 18 0 19 0;
#X connect 19 0 20 0;
#X connect 21 0 22 0;
#X connect 22 0 23 0;
#X connect 24 0 25 0;
#X connect 25 0 26 0;
#X connect 27 0 28 0;
#X connect 28 0 29 0;
#X connect 30 0 31 0;
#X connect 31 0 32 0;
#X connect 33 0 34 0;
#X connect 34 0 70 0;
#X connect 35 0 36 0;
#X connect 37 0 38 0;
#X connect 39 0 40 0;
#X connect 41 0 42 0;
#X connect 43 0 44 0;
#X connect 45 0 46 0;
#X connect 56 0 33 0;
#X connect 57 0 9 0;
#X connect 57 1 12 0;
#X connect 57 2 15 0;
#X connect 57 3 18 0;
#X connect 57 4 21 0;
#X connect 57 5 24 0;
#X connect 57 6 27 0;
#X connect 57 7 30 0;
#X connect 57 8 58 0;
#X connect 58 0 59 0;
#X connect 59 0 60 0;
#X connect 60 0 61 0;
#X connect 61 0 63 0;
#X connect 61 0 11 0;
#X connect 63 0 14 0;
#X connect 63 0 64 0;
#X connect 64 0 17 0;
#X connect 64 0 65 0;
#X connect 65 0 20 0;
#X connect 65 0 66 0;
#X connect 66 0 23 0;
#X connect 66 0 67 0;
#X connect 67 0 26 0;
#X connect 67 0 68 0;
#X connect 68 0 29 0;
#X connect 68 0 69 0;
#X connect 69 0 32 0;
#X connect 70 0 35 0;
#X connect 70 1 37 0;
#X connect 70 2 39 0;
#X connect 70 3 41 0;
#X connect 70 4 43 0;
#X connect 70 5 45 0;
#X connect 70 6 72 0;
#X connect 72 0 71 0;
#X connect 73 0 68 1;
#X connect 73 0 69 1;
#X connect 73 0 67 1;
#X connect 73 0 66 1;
#X connect 73 0 65 1;
#X connect 73 0 64 1;
#X connect 73 0 63 1;
#X connect 74 0 73 0;
#X coords 0 -1 1 1 250 40 1 300 100;
#X text 1 1 copyright (C) 2009 Anatol Waschke;
#X text 1 13 distributed under GPL (see doc/COPYING);
This file is part of bai.tu.

    bai.tu is free software: you can redistribute it and/or modify
    it under the terms of the GNU General Public License as published by
    the Free Software Foundation, either version 3 of the License, or
    (at your option) any later version.

    bai.tu is distributed in the hope that it will be useful,
    but WITHOUT ANY WARRANTY; without even the implied warranty of
    MERCHANTABILITY or FITNESS FOR A PARTICULAR PURPOSE.  See the
    GNU General Public License for more details.

    You should have received a copy of the GNU General Public License
    along with bai.tu.  If not, see <http://www.gnu.org/licenses/>.;
