#N canvas 1495 96 941 678 10;
#X obj 121 582 gem_auto_setup;
#X obj 123 544 bng 15 250 50 0 empty empty empty 17 7 0 10 -262144
-1 -1;
#X obj 189 549 bng 15 250 50 0 empty empty empty 17 7 0 10 -262144
-1 -1;
#X obj 33 246 rectangle;
#X floatatom 61 213 5 0 0 0 - - -;
#X floatatom 105 215 5 0 0 0 - - -;
#X obj 392 302 vsl 15 128 0 800 0 0 empty empty high 0 -9 0 10 -262144
-1 -1 4400 1;
#X obj 435 287 hsl 128 15 0 1200 0 0 empty empty wide -2 -8 0 10 -262144
-1 -1 2700 1;
#X obj 106 175 / 100;
#X obj 157 179 / 100;
#X obj 26 166 rotateXYZ;
#X floatatom 437 327 5 0 0 0 V - -;
#X obj 267 32 / 100;
#X floatatom 484 326 5 0 0 0 H - -;
#X obj 311 31 / 100;
#X obj 35 89 translateXYZ;
#X floatatom 438 395 5 0 0 0 X - -;
#X obj 68 30 / 100;
#X floatatom 483 394 5 0 0 0 Y - -;
#X obj 112 29 / 100;
#X floatatom 531 394 5 0 0 0 Z - -;
#X obj 164 25 / 100;
#X obj 19 -22 inlet;
#X text 470 373 position;
#X text 467 307 keystone;
#X text 400 271 size;
#X obj 331 71 outlet;
#X obj 397 71 outlet;
#X msg 174 427 write video_out0.auto;
#X obj 149 454 textfile;
#X obj 183 381 bng 15 250 50 0 empty empty empty 17 7 0 10 -262144
-1 -1;
#X obj 183 401 delay 5;
#X floatatom -95 452 5 0 0 0 - - -;
#X floatatom -59 450 5 0 0 0 - - -;
#X floatatom -23 450 5 0 0 0 - - -;
#X floatatom 16 453 5 0 0 0 - - -;
#X floatatom 57 455 5 0 0 0 - - -;
#X floatatom 16 501 5 0 0 0 - - -;
#X floatatom 61 500 5 0 0 0 - - -;
#X obj 114 248 bng 15 250 50 0 empty empty empty 17 7 0 10 -262144
-1 -1;
#X obj 112 288 delay 5;
#X msg -18 309 read /home/anatol/Desktop/pd-testvideo_out1.auto;
#X obj -69 182 loadbang;
#X msg -82 336 rewind;
#X obj -44 360 bng 15 250 50 0 empty empty empty 17 7 0 10 -262144
-1 -1;
#X obj 123 488 r rr_1;
#X obj 190 492 r rr_4;
#X obj 478 32 outlet;
#X floatatom 530 326 5 0 0 0 - - -;
#X obj 384 28 / 100;
#X floatatom 18 553 5 0 0 0 - - -;
#X obj -34 214 float \$1;
#X obj -81 308 delay 5;
#X obj -21 339 delay 5;
#X obj -57 276 delay 1;
#X obj 464 109 video_demux;
#X obj 467 77 r rv;
#X obj 438 700 s rc;
#X obj 248 472 print;
#X obj 425 418 bng 15 250 50 0 empty empty empty 17 7 0 10 -262144
-1 -1;
#X text 443 416 start video output;
#X text 518 324 Z;
#X obj 425 643 video_mux;
#X obj 715 523 s keystone_X;
#X obj 718 524 s keystone_Y;
#X obj 719 527 s keystone_Z;
#X obj 727 494 spigot;
#X obj 443 347 tgl 15 0 empty empty Master 17 7 0 10 -262144 -1 -1
0 1;
#X obj 736 492 spigot;
#X obj 737 493 spigot;
#X obj 505 347 tgl 15 0 empty empty Slave 17 7 0 10 -262144 -1 -1 0
1;
#X msg 690 385 0;
#X obj 708 411 spigot;
#X msg 772 392 0;
#X obj 764 449 spigot;
#X obj 705 294 r keystone_X;
#X obj 706 295 r keystone_Y;
#X obj 705 294 r keystone_Z;
#X obj 721 331 spigot;
#X obj 714 335 spigot;
#X obj 712 333 spigot;
#X obj 155 327 pack \$1 \$2 \$3 \$4 \$5 \$6 \$7 \$8 \$9 \$10;
#X msg 160 354 set \$1 \$2 \$3 \$4 \$5 \$6 \$7 \$8 \$9 \$10;
#X obj -85 415 unpack \$1 \$2 \$3 \$4 \$5 \$6 \$7 \$8 \$9 \$10;
#X obj 330 625 s move_in;
#X obj 348 569 mov_mux;
#X obj 677 210 r movx\$1;
#X obj 754 209 r movy\$1;
#X obj 764 240 r movz\$1;
#X text 1 1 copyright (C) 2009 Anatol Waschke;
#X text 1 13 distributed under GPL (see doc/COPYING);
#X obj -42 617 set_comp_write video_out;
#X obj -70 649 set_comp_read video_out;
#X obj -9 131 bng 15 250 50 0 empty empty empty 17 7 0 10 -262144 -1
-1;
#X connect 1 0 0 0;
#X connect 2 0 0 1;
#X connect 4 0 3 1;
#X connect 5 0 3 2;
#X connect 6 0 9 0;
#X connect 6 0 39 0;
#X connect 6 0 62 0;
#X connect 6 0 81 6;
#X connect 7 0 8 0;
#X connect 7 0 39 0;
#X connect 7 0 62 1;
#X connect 7 0 81 5;
#X connect 8 0 4 0;
#X connect 9 0 5 0;
#X connect 10 0 3 0;
#X connect 11 0 12 0;
#X connect 11 0 39 0;
#X connect 11 0 62 5;
#X connect 11 0 69 0;
#X connect 11 0 81 3;
#X connect 12 0 10 1;
#X connect 12 0 26 0;
#X connect 13 0 14 0;
#X connect 13 0 39 0;
#X connect 13 0 62 6;
#X connect 13 0 68 0;
#X connect 13 0 81 4;
#X connect 14 0 10 2;
#X connect 14 0 27 0;
#X connect 15 0 10 0;
#X connect 16 0 17 0;
#X connect 16 0 39 0;
#X connect 16 0 62 2;
#X connect 16 0 81 0;
#X connect 16 0 85 0;
#X connect 17 0 15 1;
#X connect 18 0 19 0;
#X connect 18 0 39 0;
#X connect 18 0 62 3;
#X connect 18 0 81 1;
#X connect 18 0 85 1;
#X connect 19 0 15 2;
#X connect 20 0 21 0;
#X connect 20 0 62 4;
#X connect 20 0 81 2;
#X connect 20 0 85 2;
#X connect 21 0 15 3;
#X connect 22 0 15 0;
#X connect 28 0 29 0;
#X connect 28 0 58 0;
#X connect 29 0 83 0;
#X connect 30 0 31 0;
#X connect 31 0 28 0;
#X connect 39 0 40 0;
#X connect 40 0 81 0;
#X connect 41 0 29 0;
#X connect 42 0 51 0;
#X connect 42 0 52 0;
#X connect 42 0 54 0;
#X connect 43 0 29 0;
#X connect 44 0 29 0;
#X connect 45 0 1 0;
#X connect 46 0 2 0;
#X connect 48 0 49 0;
#X connect 48 0 39 0;
#X connect 48 0 62 7;
#X connect 48 0 66 0;
#X connect 48 0 81 7;
#X connect 49 0 47 0;
#X connect 49 0 10 3;
#X connect 51 0 55 1;
#X connect 51 0 62 8;
#X connect 51 0 85 3;
#X connect 51 0 91 0;
#X connect 51 0 92 0;
#X connect 52 0 43 0;
#X connect 52 0 53 0;
#X connect 53 0 44 0;
#X connect 54 0 41 0;
#X connect 55 0 6 0;
#X connect 55 1 7 0;
#X connect 55 2 16 0;
#X connect 55 3 18 0;
#X connect 55 4 20 0;
#X connect 55 5 11 0;
#X connect 55 6 13 0;
#X connect 55 7 48 0;
#X connect 56 0 55 0;
#X connect 59 0 1 0;
#X connect 62 0 57 0;
#X connect 66 0 65 0;
#X connect 67 0 66 1;
#X connect 67 0 68 1;
#X connect 67 0 69 1;
#X connect 67 0 71 0;
#X connect 67 0 74 1;
#X connect 67 0 81 8;
#X connect 67 0 39 0;
#X connect 68 0 64 0;
#X connect 69 0 63 0;
#X connect 70 0 72 1;
#X connect 70 0 73 0;
#X connect 70 0 78 1;
#X connect 70 0 80 1;
#X connect 70 0 79 1;
#X connect 70 0 81 9;
#X connect 70 0 39 0;
#X connect 71 0 72 0;
#X connect 72 0 70 0;
#X connect 73 0 74 0;
#X connect 74 0 67 0;
#X connect 75 0 78 0;
#X connect 76 0 80 0;
#X connect 77 0 79 0;
#X connect 78 0 11 0;
#X connect 79 0 48 0;
#X connect 80 0 13 0;
#X connect 81 0 82 0;
#X connect 82 0 29 0;
#X connect 82 0 30 0;
#X connect 83 0 32 0;
#X connect 83 0 16 0;
#X connect 83 1 33 0;
#X connect 83 1 18 0;
#X connect 83 2 34 0;
#X connect 83 2 20 0;
#X connect 83 3 35 0;
#X connect 83 3 11 0;
#X connect 83 4 36 0;
#X connect 83 4 13 0;
#X connect 83 5 37 0;
#X connect 83 5 7 0;
#X connect 83 6 38 0;
#X connect 83 6 6 0;
#X connect 83 7 50 0;
#X connect 83 7 48 0;
#X connect 83 8 67 0;
#X connect 83 9 70 0;
#X connect 85 0 84 0;
#X connect 86 0 16 0;
#X connect 87 0 18 0;
#X connect 88 0 20 0;
#X connect 91 0 28 0;
#X connect 92 0 41 0;
#X connect 93 0 51 0;
#X coords 0 -1 1 1 200 180 1 380 260;
